solid OpenSCAD_Model
  facet normal 0 -0 1
    outer loop
      vertex 24.3878 -79.7251 3
      vertex 31.1478 -49.1223 3
      vertex 23.6533 -68.0513 3
    endloop
  endfacet
  facet normal 0 0 1
    outer loop
      vertex 5.26602 -71.4504 3
      vertex 14.4996 -78.159 3
      vertex 24.3878 -79.7251 3
    endloop
  endfacet
  facet normal 0 -0 1
    outer loop
      vertex 22.9469 -68.0735 3
      vertex 23.6533 -68.0513 3
      vertex 2.94695 -45.5851 3
    endloop
  endfacet
  facet normal -0 0 1
    outer loop
      vertex 22.9469 -68.0735 3
      vertex 24.3878 -79.7251 3
      vertex 23.6533 -68.0513 3
    endloop
  endfacet
  facet normal 0 0 1
    outer loop
      vertex 2.94695 -45.5851 3
      vertex 24.3878 -79.7251 3
      vertex 22.9469 -68.0735 3
    endloop
  endfacet
  facet normal 0 0 -1
    outer loop
      vertex 24.3878 -79.7251 0
      vertex 0.406454 -52.5236 0
      vertex 23.6533 -68.0513 0
    endloop
  endfacet
  facet normal -0.860785 0.508969 0
    outer loop
      vertex 2.83839 -45.7687 0
      vertex 2.83839 -45.7687 3
      vertex 2.94695 -45.5851 3
    endloop
  endfacet
  facet normal 0 0 -1
    outer loop
      vertex 23.6533 -68.0513 0
      vertex 31.1478 -49.1223 0
      vertex 24.3878 -79.7251 0
    endloop
  endfacet
  facet normal 0 -0 -1
    outer loop
      vertex 31.1478 -49.1223 0
      vertex 34.1853 -76.8235 0
      vertex 24.3878 -79.7251 0
    endloop
  endfacet
  facet normal 0.750135 0.661285 0
    outer loop
      vertex 31.1478 -49.1223 3
      vertex 31.6152 -49.6525 0
      vertex 31.1478 -49.1223 0
    endloop
  endfacet
  facet normal 0.0940946 0.995563 -0
    outer loop
      vertex 24.3569 -45.6622 0
      vertex 23.6533 -45.5957 3
      vertex 24.3569 -45.6622 3
    endloop
  endfacet
  facet normal 0 0 -1
    outer loop
      vertex 23.6533 -68.0513 0
      vertex 0.406454 -52.5236 0
      vertex 31.1478 -49.1223 0
    endloop
  endfacet
  facet normal 0 0 1
    outer loop
      vertex 31.1478 -49.1223 3
      vertex 24.3569 -45.6622 3
      vertex 2.94695 -45.5851 3
    endloop
  endfacet
  facet normal 0 -0 1
    outer loop
      vertex 23.6533 -68.0513 3
      vertex 31.1478 -49.1223 3
      vertex 2.94695 -45.5851 3
    endloop
  endfacet
  facet normal 0.508761 -0.860908 0
    outer loop
      vertex 34.1853 -76.8235 3
      vertex 34.0017 -76.932 0
      vertex 34.1853 -76.8235 0
    endloop
  endfacet
  facet normal 0 0 -1
    outer loop
      vertex 34.1853 -76.8235 0
      vertex 30.0379 -78.6473 0
      vertex 24.3878 -79.7251 0
    endloop
  endfacet
  facet normal 0.0314232 -0.999506 0
    outer loop
      vertex 24.3878 -79.7251 3
      vertex 22.9469 -79.7704 3
      vertex 24.3878 -79.7251 0
    endloop
  endfacet
  facet normal 0 0 1
    outer loop
      vertex 2.94695 -45.5851 3
      vertex 5.26602 -71.4504 3
      vertex 24.3878 -79.7251 3
    endloop
  endfacet
  facet normal 0 0 -1
    outer loop
      vertex 0.406454 -52.5236 0
      vertex 2.94695 -45.5851 0
      vertex 31.1478 -49.1223 0
    endloop
  endfacet
  facet normal -0.860785 0.508969 0
    outer loop
      vertex 2.94695 -45.5851 0
      vertex 2.83839 -45.7687 0
      vertex 2.94695 -45.5851 3
    endloop
  endfacet
  facet normal 0 0 -1
    outer loop
      vertex 2.94695 -45.5851 0
      vertex 24.3569 -45.6622 0
      vertex 31.1478 -49.1223 0
    endloop
  endfacet
  facet normal 0 0 1
    outer loop
      vertex 24.3569 -45.6622 3
      vertex 22.9469 -45.5735 3
      vertex 2.94695 -45.5851 3
    endloop
  endfacet
  facet normal 0 0 -1
    outer loop
      vertex 34.1082 -55.4135 0
      vertex 34.1969 -56.8235 0
      vertex 34.1853 -76.8235 0
    endloop
  endfacet
  facet normal 0 0 -1
    outer loop
      vertex 31.1478 -49.1223 0
      vertex 34.1082 -55.4135 0
      vertex 34.1853 -76.8235 0
    endloop
  endfacet
  facet normal 0 0 1
    outer loop
      vertex 34.1853 -76.8235 3
      vertex 34.1082 -55.4135 3
      vertex 31.1478 -49.1223 3
    endloop
  endfacet
  facet normal 0 0 1
    outer loop
      vertex 24.3878 -79.7251 3
      vertex 34.1853 -76.8235 3
      vertex 31.1478 -49.1223 3
    endloop
  endfacet
  facet normal 0.279006 -0.960289 0
    outer loop
      vertex 30.0379 -78.6473 3
      vertex 28.6536 -79.0495 0
      vertex 30.0379 -78.6473 0
    endloop
  endfacet
  facet normal 0 0 -1
    outer loop
      vertex 30.0379 -78.6473 0
      vertex 27.2468 -79.364 0
      vertex 24.3878 -79.7251 0
    endloop
  endfacet
  facet normal 0 0 -1
    outer loop
      vertex 5.26602 -71.4504 0
      vertex 1.61142 -65.2708 0
      vertex 0.406454 -52.5236 0
    endloop
  endfacet
  facet normal 0 0 1
    outer loop
      vertex 2.94695 -45.5851 3
      vertex 0.0452811 -58.2643 3
      vertex 5.26602 -71.4504 3
    endloop
  endfacet
  facet normal 0 0 1
    outer loop
      vertex 0.0452811 -58.2643 3
      vertex 0.406454 -61.1233 3
      vertex 1.61142 -65.2708 3
    endloop
  endfacet
  facet normal 0 0 -1
    outer loop
      vertex 24.3878 -79.7251 0
      vertex 5.26602 -71.4504 0
      vertex 0.406454 -52.5236 0
    endloop
  endfacet
  facet normal -0.750102 -0.661322 0
    outer loop
      vertex 5.26602 -71.4504 0
      vertex 6.21934 -72.5317 3
      vertex 5.26602 -71.4504 3
    endloop
  endfacet
  facet normal 0.0314232 -0.999506 0
    outer loop
      vertex 22.9469 -79.7704 3
      vertex 22.9469 -79.7704 0
      vertex 24.3878 -79.7251 0
    endloop
  endfacet
  facet normal 0 0 -1
    outer loop
      vertex 0.406454 -52.5236 0
      vertex 1.61142 -48.3761 0
      vertex 2.94695 -45.5851 0
    endloop
  endfacet
  facet normal -0.975915 0.21815 0
    outer loop
      vertex 0.720921 -51.1168 3
      vertex 0.720921 -51.1168 0
      vertex 0.406454 -52.5236 0
    endloop
  endfacet
  facet normal 0 0 1
    outer loop
      vertex 31.1478 -49.1223 3
      vertex 28.3667 -46.965 3
      vertex 24.3569 -45.6622 3
    endloop
  endfacet
  facet normal 0.338719 0.940887 0
    outer loop
      vertex 26.4234 -46.1241 3
      vertex 27.0884 -46.3635 3
      vertex 26.4234 -46.1241 0
    endloop
  endfacet
  facet normal 0 0 1
    outer loop
      vertex 28.3667 -46.965 3
      vertex 26.4234 -46.1241 3
      vertex 24.3569 -45.6622 3
    endloop
  endfacet
  facet normal 0 0 -1
    outer loop
      vertex 24.3569 -45.6622 0
      vertex 28.3667 -46.965 0
      vertex 31.1478 -49.1223 0
    endloop
  endfacet
  facet normal -0.000580001 1 0
    outer loop
      vertex 22.9469 -45.5735 3
      vertex 22.9469 -45.5735 0
      vertex 2.94695 -45.5851 0
    endloop
  endfacet
  facet normal -0.000580001 1 0
    outer loop
      vertex 2.94695 -45.5851 3
      vertex 22.9469 -45.5735 3
      vertex 2.94695 -45.5851 0
    endloop
  endfacet
  facet normal 0.99555 0.0942348 0
    outer loop
      vertex 34.1082 -55.4135 3
      vertex 34.1748 -56.1171 0
      vertex 34.1082 -55.4135 0
    endloop
  endfacet
  facet normal 0 0 -1
    outer loop
      vertex 31.1478 -49.1223 0
      vertex 33.1263 -52.0335 0
      vertex 34.1082 -55.4135 0
    endloop
  endfacet
  facet normal 1 -0.00058 0
    outer loop
      vertex 34.1969 -56.8235 0
      vertex 34.1969 -56.8235 3
      vertex 34.1853 -76.8235 3
    endloop
  endfacet
  facet normal 1 -0.00058 0
    outer loop
      vertex 34.1853 -76.8235 0
      vertex 34.1969 -56.8235 0
      vertex 34.1853 -76.8235 3
    endloop
  endfacet
  facet normal 0 0 -1
    outer loop
      vertex 33.1263 -52.0335 0
      vertex 33.8435 -54.0257 0
      vertex 34.1082 -55.4135 0
    endloop
  endfacet
  facet normal 0 0 1
    outer loop
      vertex 34.1082 -55.4135 3
      vertex 33.1263 -52.0335 3
      vertex 31.1478 -49.1223 3
    endloop
  endfacet
  facet normal 0 0 -1
    outer loop
      vertex 32.7173 -77.5865 0
      vertex 31.3943 -78.159 0
      vertex 30.0379 -78.6473 0
    endloop
  endfacet
  facet normal 0 0 -1
    outer loop
      vertex 34.1853 -76.8235 0
      vertex 32.7173 -77.5865 0
      vertex 30.0379 -78.6473 0
    endloop
  endfacet
  facet normal 0.508761 -0.860908 0
    outer loop
      vertex 34.1853 -76.8235 3
      vertex 34.0017 -76.932 3
      vertex 34.0017 -76.932 0
    endloop
  endfacet
  facet normal 0 0 1
    outer loop
      vertex 24.3878 -79.7251 3
      vertex 30.0379 -78.6473 3
      vertex 34.1853 -76.8235 3
    endloop
  endfacet
  facet normal 0.156429 -0.987689 0
    outer loop
      vertex 27.2468 -79.364 3
      vertex 25.823 -79.5895 0
      vertex 27.2468 -79.364 0
    endloop
  endfacet
  facet normal 0 0 -1
    outer loop
      vertex 27.2468 -79.364 0
      vertex 25.823 -79.5895 0
      vertex 24.3878 -79.7251 0
    endloop
  endfacet
  facet normal -0.975915 -0.21815 0
    outer loop
      vertex 0.406454 -61.1233 0
      vertex 0.720921 -62.5301 3
      vertex 0.406454 -61.1233 3
    endloop
  endfacet
  facet normal 0 0 1
    outer loop
      vertex 2.94695 -45.5851 3
      vertex 0.720921 -51.1168 3
      vertex 0.0452811 -58.2643 3
    endloop
  endfacet
  facet normal 0 0 1
    outer loop
      vertex 0.0452811 -58.2643 3
      vertex 1.61142 -65.2708 3
      vertex 5.26602 -71.4504 3
    endloop
  endfacet
  facet normal 0 0 -1
    outer loop
      vertex 1.61142 -65.2708 0
      vertex 0.0452811 -58.2643 0
      vertex 0.406454 -52.5236 0
    endloop
  endfacet
  facet normal 0 0 1
    outer loop
      vertex 14.4996 -78.159 3
      vertex 18.6471 -79.364 3
      vertex 24.3878 -79.7251 3
    endloop
  endfacet
  facet normal -0.218172 -0.97591 -0
    outer loop
      vertex 18.6471 -79.364 3
      vertex 17.2403 -79.0495 3
      vertex 18.6471 -79.364 0
    endloop
  endfacet
  facet normal 0 0 1
    outer loop
      vertex 9.45907 -75.3879 3
      vertex 11.8922 -76.932 3
      vertex 14.4996 -78.159 3
    endloop
  endfacet
  facet normal 0 0 1
    outer loop
      vertex 5.26602 -71.4504 3
      vertex 9.45907 -75.3879 3
      vertex 14.4996 -78.159 3
    endloop
  endfacet
  facet normal -0.707128 -0.707086 0
    outer loop
      vertex 6.21934 -72.5317 3
      vertex 7.23868 -73.5511 0
      vertex 7.23868 -73.5511 3
    endloop
  endfacet
  facet normal 0 0 -1
    outer loop
      vertex 24.3878 -79.7251 0
      vertex 14.4996 -78.159 0
      vertex 5.26602 -71.4504 0
    endloop
  endfacet
  facet normal 0 0 -1
    outer loop
      vertex 1.61142 -48.3761 0
      vertex 2.18393 -47.0531 0
      vertex 2.94695 -45.5851 0
    endloop
  endfacet
  facet normal -0.917755 0.397146 0
    outer loop
      vertex 1.61142 -48.3761 0
      vertex 1.61142 -48.3761 3
      vertex 2.18393 -47.0531 0
    endloop
  endfacet
  facet normal 0 0 1
    outer loop
      vertex 31.1478 -49.1223 3
      vertex 30.118 -48.1552 3
      vertex 28.3667 -46.965 3
    endloop
  endfacet
  facet normal 0 0 1
    outer loop
      vertex 30.118 -48.1552 3
      vertex 29.5595 -47.722 3
      vertex 28.975 -47.3248 3
    endloop
  endfacet
  facet normal 0.279016 0.960286 0
    outer loop
      vertex 26.4234 -46.1241 3
      vertex 26.4234 -46.1241 0
      vertex 25.7447 -45.9269 3
    endloop
  endfacet
  facet normal 0 0 1
    outer loop
      vertex 26.4234 -46.1241 3
      vertex 25.7447 -45.9269 3
      vertex 24.3569 -45.6622 3
    endloop
  endfacet
  facet normal 0 0 -1
    outer loop
      vertex 28.3667 -46.965 0
      vertex 28.975 -47.3248 0
      vertex 31.1478 -49.1223 0
    endloop
  endfacet
  facet normal 0.509096 0.86071 0
    outer loop
      vertex 28.3667 -46.965 3
      vertex 28.975 -47.3248 0
      vertex 28.3667 -46.965 0
    endloop
  endfacet
  facet normal 0.0314114 0.999507 0
    outer loop
      vertex 23.6533 -45.5957 3
      vertex 22.9469 -45.5735 0
      vertex 22.9469 -45.5735 3
    endloop
  endfacet
  facet normal 0 0 1
    outer loop
      vertex 24.3569 -45.6622 3
      vertex 23.6533 -45.5957 3
      vertex 22.9469 -45.5735 3
    endloop
  endfacet
  facet normal 0 0 -1
    outer loop
      vertex 22.9469 -45.5735 0
      vertex 23.6533 -45.5957 0
      vertex 24.3569 -45.6622 0
    endloop
  endfacet
  facet normal 0 0 -1
    outer loop
      vertex 2.94695 -45.5851 0
      vertex 22.9469 -45.5735 0
      vertex 24.3569 -45.6622 0
    endloop
  endfacet
  facet normal 0 0 1
    outer loop
      vertex 33.8435 -54.0257 3
      vertex 33.4069 -52.6821 3
      vertex 33.1263 -52.0335 3
    endloop
  endfacet
  facet normal 0 0 -1
    outer loop
      vertex 31.1478 -49.1223 0
      vertex 32.4456 -50.7954 0
      vertex 33.1263 -52.0335 0
    endloop
  endfacet
  facet normal 0 0 1
    outer loop
      vertex 34.1969 -56.8235 3
      vertex 34.1748 -56.1171 3
      vertex 34.1082 -55.4135 3
    endloop
  endfacet
  facet normal 0 -0 1
    outer loop
      vertex 34.1853 -76.8235 3
      vertex 34.1969 -56.8235 3
      vertex 34.1082 -55.4135 3
    endloop
  endfacet
  facet normal 0.999511 0.0312701 -0
    outer loop
      vertex 34.1969 -56.8235 0
      vertex 34.1748 -56.1171 0
      vertex 34.1969 -56.8235 3
    endloop
  endfacet
  facet normal 0 0 -1
    outer loop
      vertex 34.1082 -55.4135 0
      vertex 34.1748 -56.1171 0
      vertex 34.1969 -56.8235 0
    endloop
  endfacet
  facet normal 0 0 1
    outer loop
      vertex 34.1082 -55.4135 3
      vertex 33.8435 -54.0257 3
      vertex 33.1263 -52.0335 3
    endloop
  endfacet
  facet normal 0 0 -1
    outer loop
      vertex 33.8435 -54.0257 0
      vertex 33.9977 -54.7154 0
      vertex 34.1082 -55.4135 0
    endloop
  endfacet
  facet normal 0.891006 0.453991 -0
    outer loop
      vertex 33.1263 -52.0335 0
      vertex 32.8054 -51.4037 0
      vertex 33.1263 -52.0335 3
    endloop
  endfacet
  facet normal 0 0 1
    outer loop
      vertex 33.1263 -52.0335 3
      vertex 32.4456 -50.7954 3
      vertex 31.1478 -49.1223 3
    endloop
  endfacet
  facet normal 0.39714 -0.917758 0
    outer loop
      vertex 32.7173 -77.5865 3
      vertex 31.3943 -78.159 3
      vertex 31.3943 -78.159 0
    endloop
  endfacet
  facet normal 0 0 -1
    outer loop
      vertex 34.1853 -76.8235 0
      vertex 34.0017 -76.932 0
      vertex 32.7173 -77.5865 0
    endloop
  endfacet
  facet normal 0 0 1
    outer loop
      vertex 30.0379 -78.6473 3
      vertex 32.7173 -77.5865 3
      vertex 34.1853 -76.8235 3
    endloop
  endfacet
  facet normal 0.338717 -0.940888 0
    outer loop
      vertex 30.0379 -78.6473 0
      vertex 31.3943 -78.159 0
      vertex 30.0379 -78.6473 3
    endloop
  endfacet
  facet normal 0.39714 -0.917758 0
    outer loop
      vertex 32.7173 -77.5865 0
      vertex 32.7173 -77.5865 3
      vertex 31.3943 -78.159 0
    endloop
  endfacet
  facet normal 0.454027 -0.890988 0
    outer loop
      vertex 34.0017 -76.932 0
      vertex 32.7173 -77.5865 3
      vertex 32.7173 -77.5865 0
    endloop
  endfacet
  facet normal 0.218172 -0.97591 0
    outer loop
      vertex 28.6536 -79.0495 0
      vertex 27.2468 -79.364 3
      vertex 27.2468 -79.364 0
    endloop
  endfacet
  facet normal 0 0 -1
    outer loop
      vertex 30.0379 -78.6473 0
      vertex 28.6536 -79.0495 0
      vertex 27.2468 -79.364 0
    endloop
  endfacet
  facet normal 0.279006 -0.960289 0
    outer loop
      vertex 30.0379 -78.6473 3
      vertex 28.6536 -79.0495 3
      vertex 28.6536 -79.0495 0
    endloop
  endfacet
  facet normal 0 0 1
    outer loop
      vertex 24.3878 -79.7251 3
      vertex 27.2468 -79.364 3
      vertex 30.0379 -78.6473 3
    endloop
  endfacet
  facet normal 0.0940627 -0.995566 0
    outer loop
      vertex 25.823 -79.5895 0
      vertex 25.823 -79.5895 3
      vertex 24.3878 -79.7251 3
    endloop
  endfacet
  facet normal 0.0940627 -0.995566 0
    outer loop
      vertex 24.3878 -79.7251 0
      vertex 25.823 -79.5895 0
      vertex 24.3878 -79.7251 3
    endloop
  endfacet
  facet normal -0.940884 0.338729 0
    outer loop
      vertex 1.1231 -49.7325 0
      vertex 1.1231 -49.7325 3
      vertex 1.61142 -48.3761 3
    endloop
  endfacet
  facet normal 0 0 1
    outer loop
      vertex 2.94695 -45.5851 3
      vertex 1.61142 -48.3761 3
      vertex 0.720921 -51.1168 3
    endloop
  endfacet
  facet normal -0.940884 0.338729 0
    outer loop
      vertex 1.61142 -48.3761 0
      vertex 1.1231 -49.7325 0
      vertex 1.61142 -48.3761 3
    endloop
  endfacet
  facet normal 0 0 -1
    outer loop
      vertex 0.406454 -52.5236 0
      vertex 1.1231 -49.7325 0
      vertex 1.61142 -48.3761 0
    endloop
  endfacet
  facet normal 0 0 1
    outer loop
      vertex 0.720921 -51.1168 3
      vertex 0.0452811 -55.3826 3
      vertex 0.0452811 -58.2643 3
    endloop
  endfacet
  facet normal -0.999507 0.0314096 0
    outer loop
      vertex 0.0452811 -55.3826 3
      vertex 0.0452811 -55.3826 0
      vertex 6.8323e-07 -56.8235 0
    endloop
  endfacet
  facet normal 0 0 -1
    outer loop
      vertex 5.26602 -71.4504 0
      vertex 3.5722 -69.1191 0
      vertex 1.61142 -65.2708 0
    endloop
  endfacet
  facet normal -0.860741 -0.509043 -0
    outer loop
      vertex 3.5722 -69.1191 3
      vertex 2.83839 -67.8783 0
      vertex 3.5722 -69.1191 0
    endloop
  endfacet
  facet normal -0.917755 -0.397146 0
    outer loop
      vertex 2.18393 -66.5938 0
      vertex 2.18393 -66.5938 3
      vertex 1.61142 -65.2708 3
    endloop
  endfacet
  facet normal 0 0 1
    outer loop
      vertex 1.61142 -65.2708 3
      vertex 3.5722 -69.1191 3
      vertex 5.26602 -71.4504 3
    endloop
  endfacet
  facet normal 0 0 -1
    outer loop
      vertex 0.0452811 -58.2643 0
      vertex 6.8323e-07 -56.8235 0
      vertex 0.406454 -52.5236 0
    endloop
  endfacet
  facet normal -0.999507 -0.0314118 -0
    outer loop
      vertex 0.0452811 -58.2643 3
      vertex 6.8323e-07 -56.8235 0
      vertex 0.0452811 -58.2643 0
    endloop
  endfacet
  facet normal 0 0 1
    outer loop
      vertex 18.6471 -79.364 3
      vertex 21.5061 -79.7251 3
      vertex 24.3878 -79.7251 3
    endloop
  endfacet
  facet normal 0 0 1
    outer loop
      vertex 18.6471 -79.364 3
      vertex 20.0709 -79.5895 3
      vertex 21.5061 -79.7251 3
    endloop
  endfacet
  facet normal -0.56208 -0.827083 0
    outer loop
      vertex 9.45907 -75.3879 0
      vertex 10.6514 -76.1982 3
      vertex 9.45907 -75.3879 3
    endloop
  endfacet
  facet normal 0 0 1
    outer loop
      vertex 5.26602 -71.4504 3
      vertex 7.23868 -73.5511 3
      vertex 9.45907 -75.3879 3
    endloop
  endfacet
  facet normal 0 0 1
    outer loop
      vertex 14.4996 -78.159 3
      vertex 15.856 -78.6473 3
      vertex 18.6471 -79.364 3
    endloop
  endfacet
  facet normal 0 0 -1
    outer loop
      vertex 24.3878 -79.7251 0
      vertex 18.6471 -79.364 0
      vertex 14.4996 -78.159 0
    endloop
  endfacet
  facet normal -0.338717 -0.940888 0
    outer loop
      vertex 14.4996 -78.159 0
      vertex 15.856 -78.6473 3
      vertex 14.4996 -78.159 3
    endloop
  endfacet
  facet normal -0.218172 -0.97591 -0
    outer loop
      vertex 17.2403 -79.0495 3
      vertex 17.2403 -79.0495 0
      vertex 18.6471 -79.364 0
    endloop
  endfacet
  facet normal 0 0 -1
    outer loop
      vertex 14.4996 -78.159 0
      vertex 9.45907 -75.3879 0
      vertex 5.26602 -71.4504 0
    endloop
  endfacet
  facet normal 0 0 -1
    outer loop
      vertex 14.4996 -78.159 0
      vertex 11.8922 -76.932 0
      vertex 9.45907 -75.3879 0
    endloop
  endfacet
  facet normal 0 0 1
    outer loop
      vertex 9.45907 -75.3879 3
      vertex 10.6514 -76.1982 3
      vertex 11.8922 -76.932 3
    endloop
  endfacet
  facet normal -0.661304 -0.750118 0
    outer loop
      vertex 7.23868 -73.5511 0
      vertex 8.32001 -74.5044 3
      vertex 7.23868 -73.5511 3
    endloop
  endfacet
  facet normal 0 0 -1
    outer loop
      vertex 2.18393 -47.0531 0
      vertex 2.83839 -45.7687 0
      vertex 2.94695 -45.5851 0
    endloop
  endfacet
  facet normal -0.890999 0.454005 0
    outer loop
      vertex 2.18393 -47.0531 0
      vertex 2.18393 -47.0531 3
      vertex 2.83839 -45.7687 0
    endloop
  endfacet
  facet normal 0 0 1
    outer loop
      vertex 31.1478 -49.1223 3
      vertex 30.6481 -48.6226 3
      vertex 30.118 -48.1552 3
    endloop
  endfacet
  facet normal 0.707107 0.707107 -0
    outer loop
      vertex 31.1478 -49.1223 0
      vertex 30.6481 -48.6226 3
      vertex 31.1478 -49.1223 3
    endloop
  endfacet
  facet normal 0 0 1
    outer loop
      vertex 28.3667 -46.965 3
      vertex 27.0884 -46.3635 3
      vertex 26.4234 -46.1241 3
    endloop
  endfacet
  facet normal 0 0 1
    outer loop
      vertex 25.7447 -45.9269 3
      vertex 25.055 -45.7727 3
      vertex 24.3569 -45.6622 3
    endloop
  endfacet
  facet normal 0 0 -1
    outer loop
      vertex 24.3569 -45.6622 0
      vertex 26.4234 -46.1241 0
      vertex 28.3667 -46.965 0
    endloop
  endfacet
  facet normal 0.279016 0.960286 0
    outer loop
      vertex 26.4234 -46.1241 0
      vertex 25.7447 -45.9269 0
      vertex 25.7447 -45.9269 3
    endloop
  endfacet
  facet normal 0 0 1
    outer loop
      vertex 28.3667 -46.965 3
      vertex 27.737 -46.6442 3
      vertex 27.0884 -46.3635 3
    endloop
  endfacet
  facet normal 0.338719 0.940887 0
    outer loop
      vertex 27.0884 -46.3635 3
      vertex 27.0884 -46.3635 0
      vertex 26.4234 -46.1241 0
    endloop
  endfacet
  facet normal 0.509096 0.86071 0
    outer loop
      vertex 28.3667 -46.965 3
      vertex 28.975 -47.3248 3
      vertex 28.975 -47.3248 0
    endloop
  endfacet
  facet normal 0 0 -1
    outer loop
      vertex 28.975 -47.3248 0
      vertex 30.118 -48.1552 0
      vertex 31.1478 -49.1223 0
    endloop
  endfacet
  facet normal 0.0314114 0.999507 0
    outer loop
      vertex 23.6533 -45.5957 3
      vertex 23.6533 -45.5957 0
      vertex 22.9469 -45.5735 0
    endloop
  endfacet
  facet normal 0.0940946 0.995563 0
    outer loop
      vertex 24.3569 -45.6622 0
      vertex 23.6533 -45.5957 0
      vertex 23.6533 -45.5957 3
    endloop
  endfacet
  facet normal 0.86071 0.509096 -0
    outer loop
      vertex 32.4456 -50.7954 0
      vertex 32.4456 -50.7954 3
      vertex 32.8054 -51.4037 0
    endloop
  endfacet
  facet normal 0 0 -1
    outer loop
      vertex 31.1478 -49.1223 0
      vertex 31.6152 -49.6525 0
      vertex 32.4456 -50.7954 0
    endloop
  endfacet
  facet normal 0.999511 0.0312701 -0
    outer loop
      vertex 34.1748 -56.1171 0
      vertex 34.1748 -56.1171 3
      vertex 34.1969 -56.8235 3
    endloop
  endfacet
  facet normal 0.99555 0.0942348 0
    outer loop
      vertex 34.1082 -55.4135 3
      vertex 34.1748 -56.1171 3
      vertex 34.1748 -56.1171 0
    endloop
  endfacet
  facet normal 0.975907 0.218189 0
    outer loop
      vertex 33.8435 -54.0257 3
      vertex 33.9977 -54.7154 3
      vertex 33.9977 -54.7154 0
    endloop
  endfacet
  facet normal 0.987703 0.15634 -0
    outer loop
      vertex 34.1082 -55.4135 0
      vertex 33.9977 -54.7154 0
      vertex 34.1082 -55.4135 3
    endloop
  endfacet
  facet normal 0.975907 0.218189 -0
    outer loop
      vertex 33.8435 -54.0257 0
      vertex 33.8435 -54.0257 3
      vertex 33.9977 -54.7154 0
    endloop
  endfacet
  facet normal 0.960286 0.279016 -0
    outer loop
      vertex 33.8435 -54.0257 0
      vertex 33.6463 -53.347 0
      vertex 33.8435 -54.0257 3
    endloop
  endfacet
  facet normal 0 0 -1
    outer loop
      vertex 33.1263 -52.0335 0
      vertex 33.4069 -52.6821 0
      vertex 33.8435 -54.0257 0
    endloop
  endfacet
  facet normal 0.917793 0.397059 0
    outer loop
      vertex 33.1263 -52.0335 3
      vertex 33.4069 -52.6821 0
      vertex 33.1263 -52.0335 0
    endloop
  endfacet
  facet normal 0 0 -1
    outer loop
      vertex 32.4456 -50.7954 0
      vertex 32.8054 -51.4037 0
      vertex 33.1263 -52.0335 0
    endloop
  endfacet
  facet normal 0.891006 0.453991 -0
    outer loop
      vertex 32.8054 -51.4037 0
      vertex 32.8054 -51.4037 3
      vertex 33.1263 -52.0335 3
    endloop
  endfacet
  facet normal 0.827098 0.562058 -0
    outer loop
      vertex 32.0484 -50.2109 0
      vertex 32.0484 -50.2109 3
      vertex 32.4456 -50.7954 3
    endloop
  endfacet
  facet normal 0 0 1
    outer loop
      vertex 32.4456 -50.7954 3
      vertex 31.6152 -49.6525 3
      vertex 31.1478 -49.1223 3
    endloop
  endfacet
  facet normal 0 0 1
    outer loop
      vertex 32.7173 -77.5865 3
      vertex 34.0017 -76.932 3
      vertex 34.1853 -76.8235 3
    endloop
  endfacet
  facet normal 0.454027 -0.890988 0
    outer loop
      vertex 34.0017 -76.932 0
      vertex 34.0017 -76.932 3
      vertex 32.7173 -77.5865 3
    endloop
  endfacet
  facet normal 0 0 1
    outer loop
      vertex 30.0379 -78.6473 3
      vertex 31.3943 -78.159 3
      vertex 32.7173 -77.5865 3
    endloop
  endfacet
  facet normal 0.338717 -0.940888 0
    outer loop
      vertex 31.3943 -78.159 0
      vertex 31.3943 -78.159 3
      vertex 30.0379 -78.6473 3
    endloop
  endfacet
  facet normal 0 0 1
    outer loop
      vertex 27.2468 -79.364 3
      vertex 28.6536 -79.0495 3
      vertex 30.0379 -78.6473 3
    endloop
  endfacet
  facet normal 0.218172 -0.97591 0
    outer loop
      vertex 28.6536 -79.0495 0
      vertex 28.6536 -79.0495 3
      vertex 27.2468 -79.364 3
    endloop
  endfacet
  facet normal 0.156429 -0.987689 0
    outer loop
      vertex 27.2468 -79.364 3
      vertex 25.823 -79.5895 3
      vertex 25.823 -79.5895 0
    endloop
  endfacet
  facet normal 0 0 1
    outer loop
      vertex 24.3878 -79.7251 3
      vertex 25.823 -79.5895 3
      vertex 27.2468 -79.364 3
    endloop
  endfacet
  facet normal -0.917755 0.397146 0
    outer loop
      vertex 1.61142 -48.3761 3
      vertex 2.18393 -47.0531 3
      vertex 2.18393 -47.0531 0
    endloop
  endfacet
  facet normal 0 0 1
    outer loop
      vertex 2.94695 -45.5851 3
      vertex 2.18393 -47.0531 3
      vertex 1.61142 -48.3761 3
    endloop
  endfacet
  facet normal -0.960293 0.278993 0
    outer loop
      vertex 1.1231 -49.7325 0
      vertex 0.720921 -51.1168 0
      vertex 0.720921 -51.1168 3
    endloop
  endfacet
  facet normal 0 0 -1
    outer loop
      vertex 0.406454 -52.5236 0
      vertex 0.720921 -51.1168 0
      vertex 1.1231 -49.7325 0
    endloop
  endfacet
  facet normal -0.960293 0.278993 0
    outer loop
      vertex 0.720921 -51.1168 3
      vertex 1.1231 -49.7325 3
      vertex 1.1231 -49.7325 0
    endloop
  endfacet
  facet normal 0 0 1
    outer loop
      vertex 1.61142 -48.3761 3
      vertex 1.1231 -49.7325 3
      vertex 0.720921 -51.1168 3
    endloop
  endfacet
  facet normal 0 0 1
    outer loop
      vertex 0.720921 -51.1168 3
      vertex 0.406454 -52.5236 3
      vertex 0.0452811 -55.3826 3
    endloop
  endfacet
  facet normal -0.975915 0.21815 0
    outer loop
      vertex 0.406454 -52.5236 0
      vertex 0.406454 -52.5236 3
      vertex 0.720921 -51.1168 3
    endloop
  endfacet
  facet normal 0 0 -1
    outer loop
      vertex 5.26602 -71.4504 0
      vertex 4.38248 -70.3114 0
      vertex 3.5722 -69.1191 0
    endloop
  endfacet
  facet normal -0.790141 -0.612925 -0
    outer loop
      vertex 5.26602 -71.4504 3
      vertex 4.38248 -70.3114 0
      vertex 5.26602 -71.4504 0
    endloop
  endfacet
  facet normal 0 0 -1
    outer loop
      vertex 1.61142 -65.2708 0
      vertex 0.406454 -61.1233 0
      vertex 0.0452811 -58.2643 0
    endloop
  endfacet
  facet normal 0 0 1
    outer loop
      vertex 0.406454 -61.1233 3
      vertex 1.1231 -63.9145 3
      vertex 1.61142 -65.2708 3
    endloop
  endfacet
  facet normal -0.917755 -0.397146 0
    outer loop
      vertex 1.61142 -65.2708 0
      vertex 2.18393 -66.5938 0
      vertex 1.61142 -65.2708 3
    endloop
  endfacet
  facet normal 0 0 -1
    outer loop
      vertex 3.5722 -69.1191 0
      vertex 2.18393 -66.5938 0
      vertex 1.61142 -65.2708 0
    endloop
  endfacet
  facet normal -0.827083 -0.56208 0
    outer loop
      vertex 4.38248 -70.3114 0
      vertex 3.5722 -69.1191 3
      vertex 3.5722 -69.1191 0
    endloop
  endfacet
  facet normal 0 0 1
    outer loop
      vertex 3.5722 -69.1191 3
      vertex 4.38248 -70.3114 3
      vertex 5.26602 -71.4504 3
    endloop
  endfacet
  facet normal -0.999507 0.0314096 0
    outer loop
      vertex 6.8323e-07 -56.8235 0
      vertex 6.8323e-07 -56.8235 3
      vertex 0.0452811 -55.3826 3
    endloop
  endfacet
  facet normal 0 0 -1
    outer loop
      vertex 6.8323e-07 -56.8235 0
      vertex 0.0452811 -55.3826 0
      vertex 0.406454 -52.5236 0
    endloop
  endfacet
  facet normal -0 0 1
    outer loop
      vertex 21.5061 -79.7251 3
      vertex 22.9469 -79.7704 3
      vertex 24.3878 -79.7251 3
    endloop
  endfacet
  facet normal -0.0314253 -0.999506 -0
    outer loop
      vertex 21.5061 -79.7251 3
      vertex 21.5061 -79.7251 0
      vertex 22.9469 -79.7704 3
    endloop
  endfacet
  facet normal 0 0 -1
    outer loop
      vertex 7.23868 -73.5511 0
      vertex 6.21934 -72.5317 0
      vertex 5.26602 -71.4504 0
    endloop
  endfacet
  facet normal 0 0 1
    outer loop
      vertex 5.26602 -71.4504 3
      vertex 6.21934 -72.5317 3
      vertex 7.23868 -73.5511 3
    endloop
  endfacet
  facet normal -0.156429 -0.987689 0
    outer loop
      vertex 18.6471 -79.364 0
      vertex 20.0709 -79.5895 3
      vertex 18.6471 -79.364 3
    endloop
  endfacet
  facet normal 0 0 -1
    outer loop
      vertex 24.3878 -79.7251 0
      vertex 21.5061 -79.7251 0
      vertex 18.6471 -79.364 0
    endloop
  endfacet
  facet normal 0 0 -1
    outer loop
      vertex 21.5061 -79.7251 0
      vertex 20.0709 -79.5895 0
      vertex 18.6471 -79.364 0
    endloop
  endfacet
  facet normal -0.0940627 -0.995566 -0
    outer loop
      vertex 21.5061 -79.7251 3
      vertex 20.0709 -79.5895 3
      vertex 21.5061 -79.7251 0
    endloop
  endfacet
  facet normal 0 0 1
    outer loop
      vertex 15.856 -78.6473 3
      vertex 17.2403 -79.0495 3
      vertex 18.6471 -79.364 3
    endloop
  endfacet
  facet normal -0.279006 -0.960289 -0
    outer loop
      vertex 15.856 -78.6473 3
      vertex 15.856 -78.6473 0
      vertex 17.2403 -79.0495 3
    endloop
  endfacet
  facet normal -0.338717 -0.940888 0
    outer loop
      vertex 14.4996 -78.159 0
      vertex 15.856 -78.6473 0
      vertex 15.856 -78.6473 3
    endloop
  endfacet
  facet normal 0 0 -1
    outer loop
      vertex 18.6471 -79.364 0
      vertex 15.856 -78.6473 0
      vertex 14.4996 -78.159 0
    endloop
  endfacet
  facet normal -0.39714 -0.917758 -0
    outer loop
      vertex 14.4996 -78.159 3
      vertex 13.1766 -77.5865 3
      vertex 14.4996 -78.159 0
    endloop
  endfacet
  facet normal 0 0 1
    outer loop
      vertex 11.8922 -76.932 3
      vertex 13.1766 -77.5865 3
      vertex 14.4996 -78.159 3
    endloop
  endfacet
  facet normal 0 0 -1
    outer loop
      vertex 9.45907 -75.3879 0
      vertex 7.23868 -73.5511 0
      vertex 5.26602 -71.4504 0
    endloop
  endfacet
  facet normal -0.612887 -0.79017 -0
    outer loop
      vertex 8.32001 -74.5044 3
      vertex 8.32001 -74.5044 0
      vertex 9.45907 -75.3879 0
    endloop
  endfacet
  facet normal -0.39714 -0.917758 -0
    outer loop
      vertex 13.1766 -77.5865 3
      vertex 13.1766 -77.5865 0
      vertex 14.4996 -78.159 0
    endloop
  endfacet
  facet normal -0.454027 -0.890988 -0
    outer loop
      vertex 11.8922 -76.932 3
      vertex 11.8922 -76.932 0
      vertex 13.1766 -77.5865 3
    endloop
  endfacet
  facet normal 0 0 -1
    outer loop
      vertex 11.8922 -76.932 0
      vertex 10.6514 -76.1982 0
      vertex 9.45907 -75.3879 0
    endloop
  endfacet
  facet normal -0.509038 -0.860744 -0
    outer loop
      vertex 11.8922 -76.932 3
      vertex 10.6514 -76.1982 3
      vertex 11.8922 -76.932 0
    endloop
  endfacet
  facet normal -0.612887 -0.79017 -0
    outer loop
      vertex 9.45907 -75.3879 3
      vertex 8.32001 -74.5044 3
      vertex 9.45907 -75.3879 0
    endloop
  endfacet
  facet normal 0 0 1
    outer loop
      vertex 7.23868 -73.5511 3
      vertex 8.32001 -74.5044 3
      vertex 9.45907 -75.3879 3
    endloop
  endfacet
  facet normal 0 0 -1
    outer loop
      vertex 24.3569 -45.6622 0
      vertex 25.7447 -45.9269 0
      vertex 26.4234 -46.1241 0
    endloop
  endfacet
  facet normal 0.15634 0.987703 0
    outer loop
      vertex 24.3569 -45.6622 3
      vertex 25.055 -45.7727 3
      vertex 24.3569 -45.6622 0
    endloop
  endfacet
  facet normal 0.15634 0.987703 0
    outer loop
      vertex 25.055 -45.7727 3
      vertex 25.055 -45.7727 0
      vertex 24.3569 -45.6622 0
    endloop
  endfacet
  facet normal 0.218189 0.975907 0
    outer loop
      vertex 25.7447 -45.9269 3
      vertex 25.7447 -45.9269 0
      vertex 25.055 -45.7727 3
    endloop
  endfacet
  facet normal 0.453936 0.891034 -0
    outer loop
      vertex 28.3667 -46.965 0
      vertex 27.737 -46.6442 3
      vertex 28.3667 -46.965 3
    endloop
  endfacet
  facet normal 0.397179 0.917741 0
    outer loop
      vertex 27.737 -46.6442 3
      vertex 27.0884 -46.3635 0
      vertex 27.0884 -46.3635 3
    endloop
  endfacet
  facet normal 0 0 -1
    outer loop
      vertex 27.0884 -46.3635 0
      vertex 27.737 -46.6442 0
      vertex 28.3667 -46.965 0
    endloop
  endfacet
  facet normal 0 0 -1
    outer loop
      vertex 26.4234 -46.1241 0
      vertex 27.0884 -46.3635 0
      vertex 28.3667 -46.965 0
    endloop
  endfacet
  facet normal 0 0 1
    outer loop
      vertex 30.118 -48.1552 3
      vertex 28.975 -47.3248 3
      vertex 28.3667 -46.965 3
    endloop
  endfacet
  facet normal 0.562058 0.827098 0
    outer loop
      vertex 28.975 -47.3248 3
      vertex 29.5595 -47.722 3
      vertex 28.975 -47.3248 0
    endloop
  endfacet
  facet normal 0.661355 0.750073 0
    outer loop
      vertex 30.6481 -48.6226 3
      vertex 30.118 -48.1552 0
      vertex 30.118 -48.1552 3
    endloop
  endfacet
  facet normal 0 0 -1
    outer loop
      vertex 30.118 -48.1552 0
      vertex 30.6481 -48.6226 0
      vertex 31.1478 -49.1223 0
    endloop
  endfacet
  facet normal 0 0 1
    outer loop
      vertex 34.1082 -55.4135 3
      vertex 33.9977 -54.7154 3
      vertex 33.8435 -54.0257 3
    endloop
  endfacet
  facet normal 0.987703 0.15634 -0
    outer loop
      vertex 33.9977 -54.7154 0
      vertex 33.9977 -54.7154 3
      vertex 34.1082 -55.4135 3
    endloop
  endfacet
  facet normal 0 0 -1
    outer loop
      vertex 33.4069 -52.6821 0
      vertex 33.6463 -53.347 0
      vertex 33.8435 -54.0257 0
    endloop
  endfacet
  facet normal 0.917793 0.397059 0
    outer loop
      vertex 33.1263 -52.0335 3
      vertex 33.4069 -52.6821 3
      vertex 33.4069 -52.6821 0
    endloop
  endfacet
  facet normal 0.940871 0.338765 0
    outer loop
      vertex 33.4069 -52.6821 3
      vertex 33.6463 -53.347 0
      vertex 33.4069 -52.6821 0
    endloop
  endfacet
  facet normal 0.960286 0.279016 -0
    outer loop
      vertex 33.6463 -53.347 0
      vertex 33.6463 -53.347 3
      vertex 33.8435 -54.0257 3
    endloop
  endfacet
  facet normal 0.86071 0.509096 0
    outer loop
      vertex 32.4456 -50.7954 3
      vertex 32.8054 -51.4037 3
      vertex 32.8054 -51.4037 0
    endloop
  endfacet
  facet normal 0 0 1
    outer loop
      vertex 33.1263 -52.0335 3
      vertex 32.8054 -51.4037 3
      vertex 32.4456 -50.7954 3
    endloop
  endfacet
  facet normal 0.827098 0.562058 -0
    outer loop
      vertex 32.4456 -50.7954 0
      vertex 32.0484 -50.2109 0
      vertex 32.4456 -50.7954 3
    endloop
  endfacet
  facet normal 0 0 -1
    outer loop
      vertex 31.6152 -49.6525 0
      vertex 32.0484 -50.2109 0
      vertex 32.4456 -50.7954 0
    endloop
  endfacet
  facet normal 0.790114 0.612961 -0
    outer loop
      vertex 31.6152 -49.6525 0
      vertex 31.6152 -49.6525 3
      vertex 32.0484 -50.2109 0
    endloop
  endfacet
  facet normal 0.750135 0.661285 0
    outer loop
      vertex 31.1478 -49.1223 3
      vertex 31.6152 -49.6525 3
      vertex 31.6152 -49.6525 0
    endloop
  endfacet
  facet normal -0.890999 0.454005 0
    outer loop
      vertex 2.18393 -47.0531 3
      vertex 2.83839 -45.7687 3
      vertex 2.83839 -45.7687 0
    endloop
  endfacet
  facet normal 0 0 1
    outer loop
      vertex 2.94695 -45.5851 3
      vertex 2.83839 -45.7687 3
      vertex 2.18393 -47.0531 3
    endloop
  endfacet
  facet normal 0 0 1
    outer loop
      vertex 0.406454 -52.5236 3
      vertex 0.180944 -53.9475 3
      vertex 0.0452811 -55.3826 3
    endloop
  endfacet
  facet normal -0.98769 0.156425 0
    outer loop
      vertex 0.406454 -52.5236 0
      vertex 0.180944 -53.9475 3
      vertex 0.406454 -52.5236 3
    endloop
  endfacet
  facet normal 0 0 1
    outer loop
      vertex 0.0452811 -58.2643 3
      vertex 0.180944 -59.6995 3
      vertex 0.406454 -61.1233 3
    endloop
  endfacet
  facet normal -0.995562 -0.0941059 0
    outer loop
      vertex 0.0452811 -58.2643 0
      vertex 0.180944 -59.6995 3
      vertex 0.0452811 -58.2643 3
    endloop
  endfacet
  facet normal -0.987688 -0.156436 0
    outer loop
      vertex 0.180944 -59.6995 3
      vertex 0.406454 -61.1233 0
      vertex 0.406454 -61.1233 3
    endloop
  endfacet
  facet normal 0 0 -1
    outer loop
      vertex 0.406454 -61.1233 0
      vertex 0.180944 -59.6995 0
      vertex 0.0452811 -58.2643 0
    endloop
  endfacet
  facet normal -0.940876 -0.338751 -0
    outer loop
      vertex 1.1231 -63.9145 3
      vertex 1.1231 -63.9145 0
      vertex 1.61142 -65.2708 0
    endloop
  endfacet
  facet normal -0.940876 -0.338751 -0
    outer loop
      vertex 1.61142 -65.2708 3
      vertex 1.1231 -63.9145 3
      vertex 1.61142 -65.2708 0
    endloop
  endfacet
  facet normal 0 0 1
    outer loop
      vertex 2.18393 -66.5938 3
      vertex 2.83839 -67.8783 3
      vertex 3.5722 -69.1191 3
    endloop
  endfacet
  facet normal 0 0 1
    outer loop
      vertex 1.61142 -65.2708 3
      vertex 2.18393 -66.5938 3
      vertex 3.5722 -69.1191 3
    endloop
  endfacet
  facet normal -0.891014 -0.453976 0
    outer loop
      vertex 2.18393 -66.5938 0
      vertex 2.83839 -67.8783 0
      vertex 2.18393 -66.5938 3
    endloop
  endfacet
  facet normal 0 0 -1
    outer loop
      vertex 3.5722 -69.1191 0
      vertex 2.83839 -67.8783 0
      vertex 2.18393 -66.5938 0
    endloop
  endfacet
  facet normal -0.827083 -0.56208 0
    outer loop
      vertex 4.38248 -70.3114 0
      vertex 4.38248 -70.3114 3
      vertex 3.5722 -69.1191 3
    endloop
  endfacet
  facet normal -0.790141 -0.612925 0
    outer loop
      vertex 5.26602 -71.4504 3
      vertex 4.38248 -70.3114 3
      vertex 4.38248 -70.3114 0
    endloop
  endfacet
  facet normal -0.999507 -0.0314118 0
    outer loop
      vertex 0.0452811 -58.2643 3
      vertex 6.8323e-07 -56.8235 3
      vertex 6.8323e-07 -56.8235 0
    endloop
  endfacet
  facet normal 0 0 1
    outer loop
      vertex 0.0452811 -55.3826 3
      vertex 6.8323e-07 -56.8235 3
      vertex 0.0452811 -58.2643 3
    endloop
  endfacet
  facet normal -0.995562 0.0941124 0
    outer loop
      vertex 0.180944 -53.9475 3
      vertex 0.0452811 -55.3826 0
      vertex 0.0452811 -55.3826 3
    endloop
  endfacet
  facet normal 0 0 -1
    outer loop
      vertex 0.0452811 -55.3826 0
      vertex 0.180944 -53.9475 0
      vertex 0.406454 -52.5236 0
    endloop
  endfacet
  facet normal -0.0314253 -0.999506 0
    outer loop
      vertex 21.5061 -79.7251 0
      vertex 22.9469 -79.7704 0
      vertex 22.9469 -79.7704 3
    endloop
  endfacet
  facet normal -0 0 -1
    outer loop
      vertex 24.3878 -79.7251 0
      vertex 22.9469 -79.7704 0
      vertex 21.5061 -79.7251 0
    endloop
  endfacet
  facet normal -0.0940627 -0.995566 -0
    outer loop
      vertex 20.0709 -79.5895 3
      vertex 20.0709 -79.5895 0
      vertex 21.5061 -79.7251 0
    endloop
  endfacet
  facet normal -0.156429 -0.987689 0
    outer loop
      vertex 18.6471 -79.364 0
      vertex 20.0709 -79.5895 0
      vertex 20.0709 -79.5895 3
    endloop
  endfacet
  facet normal -0.279006 -0.960289 0
    outer loop
      vertex 15.856 -78.6473 0
      vertex 17.2403 -79.0495 0
      vertex 17.2403 -79.0495 3
    endloop
  endfacet
  facet normal 0 0 -1
    outer loop
      vertex 18.6471 -79.364 0
      vertex 17.2403 -79.0495 0
      vertex 15.856 -78.6473 0
    endloop
  endfacet
  facet normal -0.707128 -0.707086 -0
    outer loop
      vertex 6.21934 -72.5317 3
      vertex 6.21934 -72.5317 0
      vertex 7.23868 -73.5511 0
    endloop
  endfacet
  facet normal -0.750102 -0.661322 0
    outer loop
      vertex 5.26602 -71.4504 0
      vertex 6.21934 -72.5317 0
      vertex 6.21934 -72.5317 3
    endloop
  endfacet
  facet normal -0.454027 -0.890988 0
    outer loop
      vertex 11.8922 -76.932 0
      vertex 13.1766 -77.5865 0
      vertex 13.1766 -77.5865 3
    endloop
  endfacet
  facet normal 0 0 -1
    outer loop
      vertex 14.4996 -78.159 0
      vertex 13.1766 -77.5865 0
      vertex 11.8922 -76.932 0
    endloop
  endfacet
  facet normal -0.509038 -0.860744 -0
    outer loop
      vertex 10.6514 -76.1982 3
      vertex 10.6514 -76.1982 0
      vertex 11.8922 -76.932 0
    endloop
  endfacet
  facet normal -0.56208 -0.827083 0
    outer loop
      vertex 9.45907 -75.3879 0
      vertex 10.6514 -76.1982 0
      vertex 10.6514 -76.1982 3
    endloop
  endfacet
  facet normal -0.661304 -0.750118 0
    outer loop
      vertex 7.23868 -73.5511 0
      vertex 8.32001 -74.5044 0
      vertex 8.32001 -74.5044 3
    endloop
  endfacet
  facet normal 0 0 -1
    outer loop
      vertex 9.45907 -75.3879 0
      vertex 8.32001 -74.5044 0
      vertex 7.23868 -73.5511 0
    endloop
  endfacet
  facet normal 0.218189 0.975907 0
    outer loop
      vertex 25.7447 -45.9269 0
      vertex 25.055 -45.7727 0
      vertex 25.055 -45.7727 3
    endloop
  endfacet
  facet normal 0 0 -1
    outer loop
      vertex 24.3569 -45.6622 0
      vertex 25.055 -45.7727 0
      vertex 25.7447 -45.9269 0
    endloop
  endfacet
  facet normal 0.397179 0.917741 0
    outer loop
      vertex 27.737 -46.6442 3
      vertex 27.737 -46.6442 0
      vertex 27.0884 -46.3635 0
    endloop
  endfacet
  facet normal 0.453936 0.891034 0
    outer loop
      vertex 28.3667 -46.965 0
      vertex 27.737 -46.6442 0
      vertex 27.737 -46.6442 3
    endloop
  endfacet
  facet normal 0.612892 0.790167 -0
    outer loop
      vertex 30.118 -48.1552 0
      vertex 29.5595 -47.722 3
      vertex 30.118 -48.1552 3
    endloop
  endfacet
  facet normal 0.562058 0.827098 0
    outer loop
      vertex 29.5595 -47.722 3
      vertex 29.5595 -47.722 0
      vertex 28.975 -47.3248 0
    endloop
  endfacet
  facet normal 0.661355 0.750073 0
    outer loop
      vertex 30.6481 -48.6226 3
      vertex 30.6481 -48.6226 0
      vertex 30.118 -48.1552 0
    endloop
  endfacet
  facet normal 0.707107 0.707107 0
    outer loop
      vertex 31.1478 -49.1223 0
      vertex 30.6481 -48.6226 0
      vertex 30.6481 -48.6226 3
    endloop
  endfacet
  facet normal 0.940871 0.338765 0
    outer loop
      vertex 33.4069 -52.6821 3
      vertex 33.6463 -53.347 3
      vertex 33.6463 -53.347 0
    endloop
  endfacet
  facet normal 0 0 1
    outer loop
      vertex 33.8435 -54.0257 3
      vertex 33.6463 -53.347 3
      vertex 33.4069 -52.6821 3
    endloop
  endfacet
  facet normal 0.790114 0.612961 0
    outer loop
      vertex 31.6152 -49.6525 3
      vertex 32.0484 -50.2109 3
      vertex 32.0484 -50.2109 0
    endloop
  endfacet
  facet normal 0 0 1
    outer loop
      vertex 32.4456 -50.7954 3
      vertex 32.0484 -50.2109 3
      vertex 31.6152 -49.6525 3
    endloop
  endfacet
  facet normal -0.987688 -0.156436 -0
    outer loop
      vertex 0.180944 -59.6995 3
      vertex 0.180944 -59.6995 0
      vertex 0.406454 -61.1233 0
    endloop
  endfacet
  facet normal -0.995562 -0.0941059 0
    outer loop
      vertex 0.0452811 -58.2643 0
      vertex 0.180944 -59.6995 0
      vertex 0.180944 -59.6995 3
    endloop
  endfacet
  facet normal -0.960299 -0.278974 0
    outer loop
      vertex 0.720921 -62.5301 3
      vertex 1.1231 -63.9145 0
      vertex 1.1231 -63.9145 3
    endloop
  endfacet
  facet normal 0 0 1
    outer loop
      vertex 0.406454 -61.1233 3
      vertex 0.720921 -62.5301 3
      vertex 1.1231 -63.9145 3
    endloop
  endfacet
  facet normal 0 0 -1
    outer loop
      vertex 1.1231 -63.9145 0
      vertex 0.720921 -62.5301 0
      vertex 0.406454 -61.1233 0
    endloop
  endfacet
  facet normal 0 0 -1
    outer loop
      vertex 1.61142 -65.2708 0
      vertex 1.1231 -63.9145 0
      vertex 0.406454 -61.1233 0
    endloop
  endfacet
  facet normal -0.891014 -0.453976 0
    outer loop
      vertex 2.83839 -67.8783 0
      vertex 2.83839 -67.8783 3
      vertex 2.18393 -66.5938 3
    endloop
  endfacet
  facet normal -0.860741 -0.509043 0
    outer loop
      vertex 3.5722 -69.1191 3
      vertex 2.83839 -67.8783 3
      vertex 2.83839 -67.8783 0
    endloop
  endfacet
  facet normal -0.995562 0.0941124 0
    outer loop
      vertex 0.180944 -53.9475 3
      vertex 0.180944 -53.9475 0
      vertex 0.0452811 -55.3826 0
    endloop
  endfacet
  facet normal -0.98769 0.156425 0
    outer loop
      vertex 0.406454 -52.5236 0
      vertex 0.180944 -53.9475 0
      vertex 0.180944 -53.9475 3
    endloop
  endfacet
  facet normal 0.612892 0.790167 0
    outer loop
      vertex 30.118 -48.1552 0
      vertex 29.5595 -47.722 0
      vertex 29.5595 -47.722 3
    endloop
  endfacet
  facet normal 0 0 -1
    outer loop
      vertex 28.975 -47.3248 0
      vertex 29.5595 -47.722 0
      vertex 30.118 -48.1552 0
    endloop
  endfacet
  facet normal -0.960299 -0.278974 -0
    outer loop
      vertex 0.720921 -62.5301 3
      vertex 0.720921 -62.5301 0
      vertex 1.1231 -63.9145 0
    endloop
  endfacet
  facet normal -0.975915 -0.21815 0
    outer loop
      vertex 0.406454 -61.1233 0
      vertex 0.720921 -62.5301 0
      vertex 0.720921 -62.5301 3
    endloop
  endfacet
endsolid OpenSCAD_Model
