solid OpenSCAD_Model
  facet normal -0.999507 0 0.0313906
    outer loop
      vertex 1.17696 -20 0
      vertex 1.18189 -10 0.156976
      vertex 1.17696 -10 0
    endloop
  endfacet
  facet normal -0.999507 0 0.0313906
    outer loop
      vertex 1.18189 -10 0.156976
      vertex 1.17696 -20 0
      vertex 1.18189 -20 0.156976
    endloop
  endfacet
  facet normal -0.917742 0 0.397177
    outer loop
      vertex 1.35251 -20 0.920311
      vertex 1.41489 -10 1.06445
      vertex 1.35251 -10 0.920311
    endloop
  endfacet
  facet normal -0.917742 0 0.397177
    outer loop
      vertex 1.41489 -10 1.06445
      vertex 1.35251 -20 0.920311
      vertex 1.41489 -20 1.06445
    endloop
  endfacet
  facet normal -0.975917 0 0.218141
    outer loop
      vertex 1.22124 -20 0.468452
      vertex 1.2555 -10 0.621724
      vertex 1.22124 -10 0.468452
    endloop
  endfacet
  facet normal -0.975917 0 0.218141
    outer loop
      vertex 1.2555 -10 0.621724
      vertex 1.22124 -20 0.468452
      vertex 1.2555 -20 0.621724
    endloop
  endfacet
  facet normal -0.790161 0 0.6129
    outer loop
      vertex 1.65441 -20 1.46946
      vertex 1.75067 -10 1.59356
      vertex 1.65441 -10 1.46946
    endloop
  endfacet
  facet normal -0.790161 0 0.6129
    outer loop
      vertex 1.75067 -10 1.59356
      vertex 1.65441 -20 1.46946
      vertex 1.75067 -20 1.59356
    endloop
  endfacet
  facet normal -0.707043 0 0.70717
    outer loop
      vertex 1.85453 -20 1.71137
      vertex 1.91006 -10 1.76689
      vertex 1.85453 -10 1.71137
    endloop
  endfacet
  facet normal -0.707043 0 0.70717
    outer loop
      vertex 1.91006 -10 1.76689
      vertex 1.85453 -20 1.71137
      vertex 1.91006 -20 1.76689
    endloop
  endfacet
  facet normal -0.940881 0 0.338737
    outer loop
      vertex 1.29931 -20 0.772542
      vertex 1.35251 -10 0.920311
      vertex 1.29931 -10 0.772542
    endloop
  endfacet
  facet normal -0.940881 0 0.338737
    outer loop
      vertex 1.35251 -10 0.920311
      vertex 1.29931 -20 0.772542
      vertex 1.35251 -20 0.920311
    endloop
  endfacet
  facet normal -0.987687 0 0.156444
    outer loop
      vertex 1.19667 -20 0.313333
      vertex 1.22124 -10 0.468452
      vertex 1.19667 -10 0.313333
    endloop
  endfacet
  facet normal -0.987687 0 0.156444
    outer loop
      vertex 1.22124 -10 0.468452
      vertex 1.19667 -20 0.313333
      vertex 1.22124 -20 0.468452
    endloop
  endfacet
  facet normal -0.750122 0 0.661299
    outer loop
      vertex 1.75067 -20 1.59356
      vertex 1.85453 -10 1.71137
      vertex 1.75067 -10 1.59356
    endloop
  endfacet
  facet normal -0.750122 0 0.661299
    outer loop
      vertex 1.85453 -10 1.71137
      vertex 1.75067 -20 1.59356
      vertex 1.85453 -20 1.71137
    endloop
  endfacet
  facet normal -0.860745 0 0.509036
    outer loop
      vertex 1.48619 -20 1.20438
      vertex 1.56614 -10 1.33957
      vertex 1.48619 -10 1.20438
    endloop
  endfacet
  facet normal -0.860745 0 0.509036
    outer loop
      vertex 1.56614 -10 1.33957
      vertex 1.48619 -20 1.20438
      vertex 1.56614 -20 1.33957
    endloop
  endfacet
  facet normal -0.891001 0 0.454001
    outer loop
      vertex 1.41489 -20 1.06445
      vertex 1.48619 -10 1.20438
      vertex 1.41489 -10 1.06445
    endloop
  endfacet
  facet normal -0.891001 0 0.454001
    outer loop
      vertex 1.48619 -10 1.20438
      vertex 1.41489 -20 1.06445
      vertex 1.48619 -20 1.20438
    endloop
  endfacet
  facet normal -0.82709 0 0.56207
    outer loop
      vertex 1.56614 -20 1.33957
      vertex 1.65441 -10 1.46946
      vertex 1.56614 -10 1.33957
    endloop
  endfacet
  facet normal -0.82709 0 0.56207
    outer loop
      vertex 1.65441 -10 1.46946
      vertex 1.56614 -20 1.33957
      vertex 1.65441 -20 1.46946
    endloop
  endfacet
  facet normal -0.960305 0 0.278952
    outer loop
      vertex 1.2555 -20 0.621724
      vertex 1.29931 -10 0.772542
      vertex 1.2555 -10 0.621724
    endloop
  endfacet
  facet normal -0.960305 0 0.278952
    outer loop
      vertex 1.29931 -10 0.772542
      vertex 1.2555 -20 0.621724
      vertex 1.29931 -20 0.772542
    endloop
  endfacet
  facet normal -0.995562 0 0.0941078
    outer loop
      vertex 1.18189 -20 0.156976
      vertex 1.19667 -10 0.313333
      vertex 1.18189 -10 0.156976
    endloop
  endfacet
  facet normal -0.995562 0 0.0941078
    outer loop
      vertex 1.19667 -10 0.313333
      vertex 1.18189 -20 0.156976
      vertex 1.19667 -20 0.313333
    endloop
  endfacet
  facet normal -0.711136 0 -0.703055
    outer loop
      vertex 1.91006 -20 1.76689
      vertex 1.90919 -10 1.76777
      vertex 1.91006 -10 1.76689
    endloop
  endfacet
  facet normal -0.711136 -0 -0.703055
    outer loop
      vertex 1.90919 -10 1.76777
      vertex 1.91006 -20 1.76689
      vertex 1.90919 -20 1.76777
    endloop
  endfacet
  facet normal -0.707107 0 0.707107
    outer loop
      vertex 1.90919 -20 1.76777
      vertex 3.14142 -10 3
      vertex 1.90919 -10 1.76777
    endloop
  endfacet
  facet normal -0.707107 0 0.707107
    outer loop
      vertex 3.14142 -10 3
      vertex 1.90919 -20 1.76777
      vertex 3.14142 -20 3
    endloop
  endfacet
  facet normal 0 1 0
    outer loop
      vertex 1.90919 -20 1.76777
      vertex 3 -20 3
      vertex 3.14142 -20 3
    endloop
  endfacet
  facet normal 0 1 0
    outer loop
      vertex 1.85453 -20 1.71137
      vertex 1.90919 -20 1.76777
      vertex 1.91006 -20 1.76689
    endloop
  endfacet
  facet normal 0 1 0
    outer loop
      vertex 1.85453 -20 1.71137
      vertex 3 -20 3
      vertex 1.90919 -20 1.76777
    endloop
  endfacet
  facet normal 0 1 -0
    outer loop
      vertex 1.85453 -20 1.71137
      vertex 0 -20 0
      vertex 3 -20 3
    endloop
  endfacet
  facet normal 0 1 -0
    outer loop
      vertex 1.75067 -20 1.59356
      vertex 0 -20 0
      vertex 1.85453 -20 1.71137
    endloop
  endfacet
  facet normal 0 1 -0
    outer loop
      vertex 1.65441 -20 1.46946
      vertex 0 -20 0
      vertex 1.75067 -20 1.59356
    endloop
  endfacet
  facet normal 0 1 -0
    outer loop
      vertex 1.56614 -20 1.33957
      vertex 0 -20 0
      vertex 1.65441 -20 1.46946
    endloop
  endfacet
  facet normal 0 1 -0
    outer loop
      vertex 1.48619 -20 1.20438
      vertex 0 -20 0
      vertex 1.56614 -20 1.33957
    endloop
  endfacet
  facet normal 0 1 -0
    outer loop
      vertex 1.41489 -20 1.06445
      vertex 0 -20 0
      vertex 1.48619 -20 1.20438
    endloop
  endfacet
  facet normal 0 1 -0
    outer loop
      vertex 1.35251 -20 0.920311
      vertex 0 -20 0
      vertex 1.41489 -20 1.06445
    endloop
  endfacet
  facet normal 0 1 -0
    outer loop
      vertex 1.29931 -20 0.772542
      vertex 0 -20 0
      vertex 1.35251 -20 0.920311
    endloop
  endfacet
  facet normal 0 1 -0
    outer loop
      vertex 1.2555 -20 0.621724
      vertex 0 -20 0
      vertex 1.29931 -20 0.772542
    endloop
  endfacet
  facet normal 0 1 -0
    outer loop
      vertex 1.22124 -20 0.468452
      vertex 0 -20 0
      vertex 1.2555 -20 0.621724
    endloop
  endfacet
  facet normal 0 1 -0
    outer loop
      vertex 1.19667 -20 0.313333
      vertex 0 -20 0
      vertex 1.22124 -20 0.468452
    endloop
  endfacet
  facet normal 0 1 -0
    outer loop
      vertex 1.18189 -20 0.156976
      vertex 0 -20 0
      vertex 1.19667 -20 0.313333
    endloop
  endfacet
  facet normal 0 1 0
    outer loop
      vertex 0 -20 0
      vertex 1.18189 -20 0.156976
      vertex 1.17696 -20 0
    endloop
  endfacet
  facet normal 0 -1 -0
    outer loop
      vertex 3 -10 3
      vertex 1.90919 -10 1.76777
      vertex 3.14142 -10 3
    endloop
  endfacet
  facet normal 0 -1 -0
    outer loop
      vertex 1.90919 -10 1.76777
      vertex 1.85453 -10 1.71137
      vertex 1.91006 -10 1.76689
    endloop
  endfacet
  facet normal 0 -1 0
    outer loop
      vertex 3 -10 3
      vertex 1.85453 -10 1.71137
      vertex 1.90919 -10 1.76777
    endloop
  endfacet
  facet normal 0 -1 0
    outer loop
      vertex 0 -10 0
      vertex 1.85453 -10 1.71137
      vertex 3 -10 3
    endloop
  endfacet
  facet normal 0 -1 0
    outer loop
      vertex 0 -10 0
      vertex 1.75067 -10 1.59356
      vertex 1.85453 -10 1.71137
    endloop
  endfacet
  facet normal 0 -1 0
    outer loop
      vertex 0 -10 0
      vertex 1.65441 -10 1.46946
      vertex 1.75067 -10 1.59356
    endloop
  endfacet
  facet normal 0 -1 0
    outer loop
      vertex 0 -10 0
      vertex 1.56614 -10 1.33957
      vertex 1.65441 -10 1.46946
    endloop
  endfacet
  facet normal 0 -1 0
    outer loop
      vertex 0 -10 0
      vertex 1.48619 -10 1.20438
      vertex 1.56614 -10 1.33957
    endloop
  endfacet
  facet normal 0 -1 0
    outer loop
      vertex 0 -10 0
      vertex 1.41489 -10 1.06445
      vertex 1.48619 -10 1.20438
    endloop
  endfacet
  facet normal 0 -1 0
    outer loop
      vertex 0 -10 0
      vertex 1.35251 -10 0.920311
      vertex 1.41489 -10 1.06445
    endloop
  endfacet
  facet normal 0 -1 0
    outer loop
      vertex 0 -10 0
      vertex 1.29931 -10 0.772542
      vertex 1.35251 -10 0.920311
    endloop
  endfacet
  facet normal 0 -1 0
    outer loop
      vertex 0 -10 0
      vertex 1.2555 -10 0.621724
      vertex 1.29931 -10 0.772542
    endloop
  endfacet
  facet normal 0 -1 0
    outer loop
      vertex 0 -10 0
      vertex 1.22124 -10 0.468452
      vertex 1.2555 -10 0.621724
    endloop
  endfacet
  facet normal 0 -1 0
    outer loop
      vertex 0 -10 0
      vertex 1.19667 -10 0.313333
      vertex 1.22124 -10 0.468452
    endloop
  endfacet
  facet normal 0 -1 0
    outer loop
      vertex 0 -10 0
      vertex 1.18189 -10 0.156976
      vertex 1.19667 -10 0.313333
    endloop
  endfacet
  facet normal 0 -1 0
    outer loop
      vertex 1.18189 -10 0.156976
      vertex 0 -10 0
      vertex 1.17696 -10 0
    endloop
  endfacet
  facet normal -0.999507 0 0.0313906
    outer loop
      vertex 1.17696 10 0
      vertex 1.18189 20 0.156976
      vertex 1.17696 20 0
    endloop
  endfacet
  facet normal -0.999507 0 0.0313906
    outer loop
      vertex 1.18189 20 0.156976
      vertex 1.17696 10 0
      vertex 1.18189 10 0.156976
    endloop
  endfacet
  facet normal -0.917742 0 0.397177
    outer loop
      vertex 1.35251 10 0.920311
      vertex 1.41489 20 1.06445
      vertex 1.35251 20 0.920311
    endloop
  endfacet
  facet normal -0.917742 0 0.397177
    outer loop
      vertex 1.41489 20 1.06445
      vertex 1.35251 10 0.920311
      vertex 1.41489 10 1.06445
    endloop
  endfacet
  facet normal -0.975917 0 0.218141
    outer loop
      vertex 1.22124 10 0.468452
      vertex 1.2555 20 0.621724
      vertex 1.22124 20 0.468452
    endloop
  endfacet
  facet normal -0.975917 0 0.218141
    outer loop
      vertex 1.2555 20 0.621724
      vertex 1.22124 10 0.468452
      vertex 1.2555 10 0.621724
    endloop
  endfacet
  facet normal -0.790161 0 0.6129
    outer loop
      vertex 1.65441 10 1.46946
      vertex 1.75067 20 1.59356
      vertex 1.65441 20 1.46946
    endloop
  endfacet
  facet normal -0.790161 0 0.6129
    outer loop
      vertex 1.75067 20 1.59356
      vertex 1.65441 10 1.46946
      vertex 1.75067 10 1.59356
    endloop
  endfacet
  facet normal -0.707043 0 0.70717
    outer loop
      vertex 1.85453 10 1.71137
      vertex 1.91006 20 1.76689
      vertex 1.85453 20 1.71137
    endloop
  endfacet
  facet normal -0.707043 0 0.70717
    outer loop
      vertex 1.91006 20 1.76689
      vertex 1.85453 10 1.71137
      vertex 1.91006 10 1.76689
    endloop
  endfacet
  facet normal -0.940881 0 0.338737
    outer loop
      vertex 1.29931 10 0.772542
      vertex 1.35251 20 0.920311
      vertex 1.29931 20 0.772542
    endloop
  endfacet
  facet normal -0.940881 0 0.338737
    outer loop
      vertex 1.35251 20 0.920311
      vertex 1.29931 10 0.772542
      vertex 1.35251 10 0.920311
    endloop
  endfacet
  facet normal -0.987687 0 0.156444
    outer loop
      vertex 1.19667 10 0.313333
      vertex 1.22124 20 0.468452
      vertex 1.19667 20 0.313333
    endloop
  endfacet
  facet normal -0.987687 0 0.156444
    outer loop
      vertex 1.22124 20 0.468452
      vertex 1.19667 10 0.313333
      vertex 1.22124 10 0.468452
    endloop
  endfacet
  facet normal -0.750122 0 0.661299
    outer loop
      vertex 1.75067 10 1.59356
      vertex 1.85453 20 1.71137
      vertex 1.75067 20 1.59356
    endloop
  endfacet
  facet normal -0.750122 0 0.661299
    outer loop
      vertex 1.85453 20 1.71137
      vertex 1.75067 10 1.59356
      vertex 1.85453 10 1.71137
    endloop
  endfacet
  facet normal -0.860745 0 0.509036
    outer loop
      vertex 1.48619 10 1.20438
      vertex 1.56614 20 1.33957
      vertex 1.48619 20 1.20438
    endloop
  endfacet
  facet normal -0.860745 0 0.509036
    outer loop
      vertex 1.56614 20 1.33957
      vertex 1.48619 10 1.20438
      vertex 1.56614 10 1.33957
    endloop
  endfacet
  facet normal -0.891001 0 0.454001
    outer loop
      vertex 1.41489 10 1.06445
      vertex 1.48619 20 1.20438
      vertex 1.41489 20 1.06445
    endloop
  endfacet
  facet normal -0.891001 0 0.454001
    outer loop
      vertex 1.48619 20 1.20438
      vertex 1.41489 10 1.06445
      vertex 1.48619 10 1.20438
    endloop
  endfacet
  facet normal -0.82709 0 0.56207
    outer loop
      vertex 1.56614 10 1.33957
      vertex 1.65441 20 1.46946
      vertex 1.56614 20 1.33957
    endloop
  endfacet
  facet normal -0.82709 0 0.56207
    outer loop
      vertex 1.65441 20 1.46946
      vertex 1.56614 10 1.33957
      vertex 1.65441 10 1.46946
    endloop
  endfacet
  facet normal -0.960305 0 0.278952
    outer loop
      vertex 1.2555 10 0.621724
      vertex 1.29931 20 0.772542
      vertex 1.2555 20 0.621724
    endloop
  endfacet
  facet normal -0.960305 0 0.278952
    outer loop
      vertex 1.29931 20 0.772542
      vertex 1.2555 10 0.621724
      vertex 1.29931 10 0.772542
    endloop
  endfacet
  facet normal -0.995562 0 0.0941078
    outer loop
      vertex 1.18189 10 0.156976
      vertex 1.19667 20 0.313333
      vertex 1.18189 20 0.156976
    endloop
  endfacet
  facet normal -0.995562 0 0.0941078
    outer loop
      vertex 1.19667 20 0.313333
      vertex 1.18189 10 0.156976
      vertex 1.19667 10 0.313333
    endloop
  endfacet
  facet normal -0.711136 0 -0.703055
    outer loop
      vertex 1.91006 10 1.76689
      vertex 1.90919 20 1.76777
      vertex 1.91006 20 1.76689
    endloop
  endfacet
  facet normal -0.711136 -0 -0.703055
    outer loop
      vertex 1.90919 20 1.76777
      vertex 1.91006 10 1.76689
      vertex 1.90919 10 1.76777
    endloop
  endfacet
  facet normal -0.707107 0 0.707107
    outer loop
      vertex 1.90919 10 1.76777
      vertex 3.14142 20 3
      vertex 1.90919 20 1.76777
    endloop
  endfacet
  facet normal -0.707107 0 0.707107
    outer loop
      vertex 3.14142 20 3
      vertex 1.90919 10 1.76777
      vertex 3.14142 10 3
    endloop
  endfacet
  facet normal 0 1 0
    outer loop
      vertex 1.90919 10 1.76777
      vertex 3 10 3
      vertex 3.14142 10 3
    endloop
  endfacet
  facet normal 0 1 0
    outer loop
      vertex 1.85453 10 1.71137
      vertex 1.90919 10 1.76777
      vertex 1.91006 10 1.76689
    endloop
  endfacet
  facet normal 0 1 0
    outer loop
      vertex 1.85453 10 1.71137
      vertex 3 10 3
      vertex 1.90919 10 1.76777
    endloop
  endfacet
  facet normal 0 1 -0
    outer loop
      vertex 1.85453 10 1.71137
      vertex 0 10 0
      vertex 3 10 3
    endloop
  endfacet
  facet normal 0 1 -0
    outer loop
      vertex 1.75067 10 1.59356
      vertex 0 10 0
      vertex 1.85453 10 1.71137
    endloop
  endfacet
  facet normal 0 1 -0
    outer loop
      vertex 1.65441 10 1.46946
      vertex 0 10 0
      vertex 1.75067 10 1.59356
    endloop
  endfacet
  facet normal 0 1 -0
    outer loop
      vertex 1.56614 10 1.33957
      vertex 0 10 0
      vertex 1.65441 10 1.46946
    endloop
  endfacet
  facet normal 0 1 -0
    outer loop
      vertex 1.48619 10 1.20438
      vertex 0 10 0
      vertex 1.56614 10 1.33957
    endloop
  endfacet
  facet normal 0 1 -0
    outer loop
      vertex 1.41489 10 1.06445
      vertex 0 10 0
      vertex 1.48619 10 1.20438
    endloop
  endfacet
  facet normal 0 1 -0
    outer loop
      vertex 1.35251 10 0.920311
      vertex 0 10 0
      vertex 1.41489 10 1.06445
    endloop
  endfacet
  facet normal 0 1 -0
    outer loop
      vertex 1.29931 10 0.772542
      vertex 0 10 0
      vertex 1.35251 10 0.920311
    endloop
  endfacet
  facet normal 0 1 -0
    outer loop
      vertex 1.2555 10 0.621724
      vertex 0 10 0
      vertex 1.29931 10 0.772542
    endloop
  endfacet
  facet normal 0 1 -0
    outer loop
      vertex 1.22124 10 0.468452
      vertex 0 10 0
      vertex 1.2555 10 0.621724
    endloop
  endfacet
  facet normal 0 1 -0
    outer loop
      vertex 1.19667 10 0.313333
      vertex 0 10 0
      vertex 1.22124 10 0.468452
    endloop
  endfacet
  facet normal 0 1 -0
    outer loop
      vertex 1.18189 10 0.156976
      vertex 0 10 0
      vertex 1.19667 10 0.313333
    endloop
  endfacet
  facet normal 0 1 0
    outer loop
      vertex 0 10 0
      vertex 1.18189 10 0.156976
      vertex 1.17696 10 0
    endloop
  endfacet
  facet normal 0 -1 -0
    outer loop
      vertex 3 20 3
      vertex 1.90919 20 1.76777
      vertex 3.14142 20 3
    endloop
  endfacet
  facet normal 0 -1 -0
    outer loop
      vertex 1.90919 20 1.76777
      vertex 1.85453 20 1.71137
      vertex 1.91006 20 1.76689
    endloop
  endfacet
  facet normal 0 -1 0
    outer loop
      vertex 3 20 3
      vertex 1.85453 20 1.71137
      vertex 1.90919 20 1.76777
    endloop
  endfacet
  facet normal 0 -1 0
    outer loop
      vertex 0 20 0
      vertex 1.85453 20 1.71137
      vertex 3 20 3
    endloop
  endfacet
  facet normal 0 -1 0
    outer loop
      vertex 0 20 0
      vertex 1.75067 20 1.59356
      vertex 1.85453 20 1.71137
    endloop
  endfacet
  facet normal 0 -1 0
    outer loop
      vertex 0 20 0
      vertex 1.65441 20 1.46946
      vertex 1.75067 20 1.59356
    endloop
  endfacet
  facet normal 0 -1 0
    outer loop
      vertex 0 20 0
      vertex 1.56614 20 1.33957
      vertex 1.65441 20 1.46946
    endloop
  endfacet
  facet normal 0 -1 0
    outer loop
      vertex 0 20 0
      vertex 1.48619 20 1.20438
      vertex 1.56614 20 1.33957
    endloop
  endfacet
  facet normal 0 -1 0
    outer loop
      vertex 0 20 0
      vertex 1.41489 20 1.06445
      vertex 1.48619 20 1.20438
    endloop
  endfacet
  facet normal 0 -1 0
    outer loop
      vertex 0 20 0
      vertex 1.35251 20 0.920311
      vertex 1.41489 20 1.06445
    endloop
  endfacet
  facet normal 0 -1 0
    outer loop
      vertex 0 20 0
      vertex 1.29931 20 0.772542
      vertex 1.35251 20 0.920311
    endloop
  endfacet
  facet normal 0 -1 0
    outer loop
      vertex 0 20 0
      vertex 1.2555 20 0.621724
      vertex 1.29931 20 0.772542
    endloop
  endfacet
  facet normal 0 -1 0
    outer loop
      vertex 0 20 0
      vertex 1.22124 20 0.468452
      vertex 1.2555 20 0.621724
    endloop
  endfacet
  facet normal 0 -1 0
    outer loop
      vertex 0 20 0
      vertex 1.19667 20 0.313333
      vertex 1.22124 20 0.468452
    endloop
  endfacet
  facet normal 0 -1 0
    outer loop
      vertex 0 20 0
      vertex 1.18189 20 0.156976
      vertex 1.19667 20 0.313333
    endloop
  endfacet
  facet normal 0 -1 0
    outer loop
      vertex 1.18189 20 0.156976
      vertex 0 20 0
      vertex 1.17696 20 0
    endloop
  endfacet
  facet normal -0.891021 0 0.453962
    outer loop
      vertex 31.82 -2 0
      vertex 32.4654 2 1.26677
      vertex 31.82 2 0
    endloop
  endfacet
  facet normal -0.891021 0 0.453962
    outer loop
      vertex 32.4654 2 1.26677
      vertex 31.82 -2 0
      vertex 32.4654 -2 1.26677
    endloop
  endfacet
  facet normal -0.940891 0 0.338711
    outer loop
      vertex 33.0504 -2 2.6186
      vertex 33.1877 2 3
      vertex 33.0504 2 2.6186
    endloop
  endfacet
  facet normal -0.940891 0 0.338711
    outer loop
      vertex 33.1877 2 3
      vertex 33.0504 -2 2.6186
      vertex 33.1877 -2 3
    endloop
  endfacet
  facet normal 0 -1 0
    outer loop
      vertex 3 2 3
      vertex 33.0504 2 2.6186
      vertex 33.1877 2 3
    endloop
  endfacet
  facet normal 0 -1 0
    outer loop
      vertex 3 2 3
      vertex 32.4654 2 1.26677
      vertex 33.0504 2 2.6186
    endloop
  endfacet
  facet normal 0 -1 0
    outer loop
      vertex 31.82 2 0
      vertex 3 2 3
      vertex 0 2 0
    endloop
  endfacet
  facet normal 0 -1 0
    outer loop
      vertex 3 2 3
      vertex 31.82 2 0
      vertex 32.4654 2 1.26677
    endloop
  endfacet
  facet normal 0 1 -0
    outer loop
      vertex 33.0504 -2 2.6186
      vertex 3 -2 3
      vertex 33.1877 -2 3
    endloop
  endfacet
  facet normal 0 1 -0
    outer loop
      vertex 32.4654 -2 1.26677
      vertex 3 -2 3
      vertex 33.0504 -2 2.6186
    endloop
  endfacet
  facet normal 0 1 -0
    outer loop
      vertex 31.82 -2 0
      vertex 3 -2 3
      vertex 32.4654 -2 1.26677
    endloop
  endfacet
  facet normal 0 1 0
    outer loop
      vertex 3 -2 3
      vertex 31.82 -2 0
      vertex 0 -2 0
    endloop
  endfacet
  facet normal -0.917752 0 0.397154
    outer loop
      vertex 32.4654 -2 1.26677
      vertex 33.0504 2 2.6186
      vertex 32.4654 2 1.26677
    endloop
  endfacet
  facet normal -0.917752 0 0.397154
    outer loop
      vertex 33.0504 2 2.6186
      vertex 32.4654 -2 1.26677
      vertex 33.0504 -2 2.6186
    endloop
  endfacet
  facet normal -0.707107 0 0.707107
    outer loop
      vertex 0 20 0
      vertex 3 35.35 3
      vertex 0 35.35 0
    endloop
  endfacet
  facet normal -0.707107 0 0.707107
    outer loop
      vertex 3 35.35 3
      vertex 0 20 0
      vertex 3 20 3
    endloop
  endfacet
  facet normal -0.707107 0 0.707107
    outer loop
      vertex 0 -35.35 0
      vertex 3 -20 3
      vertex 0 -20 0
    endloop
  endfacet
  facet normal -0.707107 0 0.707107
    outer loop
      vertex 3 -20 3
      vertex 0 -35.35 0
      vertex 3 -35.35 3
    endloop
  endfacet
  facet normal -0.707107 0 0.707107
    outer loop
      vertex 0 2 0
      vertex 3 10 3
      vertex 0 10 0
    endloop
  endfacet
  facet normal -0.707107 0 0.707107
    outer loop
      vertex 3 10 3
      vertex 0 2 0
      vertex 3 2 3
    endloop
  endfacet
  facet normal -0.707107 0 0.707107
    outer loop
      vertex 0 -10 0
      vertex 3 -2 3
      vertex 0 -2 0
    endloop
  endfacet
  facet normal -0.707107 0 0.707107
    outer loop
      vertex 3 -2 3
      vertex 0 -10 0
      vertex 3 -10 3
    endloop
  endfacet
  facet normal 0 -1 0
    outer loop
      vertex 70.7 -35.35 0
      vertex 3 -35.35 3
      vertex 0 -35.35 0
    endloop
  endfacet
  facet normal 0 -1 0
    outer loop
      vertex 3 -35.35 3
      vertex 70.7 -35.35 0
      vertex 70.7 -35.35 3
    endloop
  endfacet
  facet normal 1 -0 0
    outer loop
      vertex 70.7 -35.35 3
      vertex 70.7 35.35 0
      vertex 70.7 35.35 3
    endloop
  endfacet
  facet normal 1 0 0
    outer loop
      vertex 70.7 35.35 0
      vertex 70.7 -35.35 3
      vertex 70.7 -35.35 0
    endloop
  endfacet
  facet normal 0 1 -0
    outer loop
      vertex 70.7 35.35 0
      vertex 3 35.35 3
      vertex 70.7 35.35 3
    endloop
  endfacet
  facet normal 0 1 0
    outer loop
      vertex 3 35.35 3
      vertex 70.7 35.35 0
      vertex 0 35.35 0
    endloop
  endfacet
  facet normal 0 0 -1
    outer loop
      vertex 0 2 0
      vertex 1.17696 10 0
      vertex 31.82 2 0
    endloop
  endfacet
  facet normal -0 0 -1
    outer loop
      vertex 1.17696 10 0
      vertex 0 2 0
      vertex 0 10 0
    endloop
  endfacet
  facet normal 0 0 -1
    outer loop
      vertex 70.7 -35.35 0
      vertex 31.82 -2 0
      vertex 70.7 35.35 0
    endloop
  endfacet
  facet normal 0 0 -1
    outer loop
      vertex 0 -35.35 0
      vertex 31.82 -2 0
      vertex 70.7 -35.35 0
    endloop
  endfacet
  facet normal 0 0 -1
    outer loop
      vertex 31.82 -2 0
      vertex 0 -35.35 0
      vertex 1.17696 -20 0
    endloop
  endfacet
  facet normal -0 0 -1
    outer loop
      vertex 1.17696 -20 0
      vertex 0 -35.35 0
      vertex 0 -20 0
    endloop
  endfacet
  facet normal 0 0 -1
    outer loop
      vertex 31.82 2 0
      vertex 70.7 35.35 0
      vertex 31.82 -2 0
    endloop
  endfacet
  facet normal 0 0 -1
    outer loop
      vertex 1.17696 20 0
      vertex 31.82 2 0
      vertex 1.17696 10 0
    endloop
  endfacet
  facet normal 0 0 -1
    outer loop
      vertex 0 35.35 0
      vertex 31.82 2 0
      vertex 1.17696 20 0
    endloop
  endfacet
  facet normal 0 0 -1
    outer loop
      vertex 0 35.35 0
      vertex 1.17696 20 0
      vertex 0 20 0
    endloop
  endfacet
  facet normal 0 0 -1
    outer loop
      vertex 31.82 2 0
      vertex 0 35.35 0
      vertex 70.7 35.35 0
    endloop
  endfacet
  facet normal 0 0 -1
    outer loop
      vertex 1.17696 -10 0
      vertex 31.82 -2 0
      vertex 1.17696 -20 0
    endloop
  endfacet
  facet normal 0 0 -1
    outer loop
      vertex 0 -2 0
      vertex 1.17696 -10 0
      vertex 0 -10 0
    endloop
  endfacet
  facet normal 0 0 -1
    outer loop
      vertex 1.17696 -10 0
      vertex 0 -2 0
      vertex 31.82 -2 0
    endloop
  endfacet
  facet normal -0 0 1
    outer loop
      vertex 3 -2 3
      vertex 3.14142 -10 3
      vertex 33.1877 -2 3
    endloop
  endfacet
  facet normal 0 0 1
    outer loop
      vertex 3.14142 -10 3
      vertex 3 -2 3
      vertex 3 -10 3
    endloop
  endfacet
  facet normal 0 0 1
    outer loop
      vertex 70.7 35.35 3
      vertex 33.1877 2 3
      vertex 70.7 -35.35 3
    endloop
  endfacet
  facet normal 0 0 1
    outer loop
      vertex 32.8 15.45 3
      vertex 70.7 35.35 3
      vertex 32.8 25.45 3
    endloop
  endfacet
  facet normal -0 0 1
    outer loop
      vertex 3 35.35 3
      vertex 32.8 25.45 3
      vertex 70.7 35.35 3
    endloop
  endfacet
  facet normal 0 0 1
    outer loop
      vertex 22.6 25.45 3
      vertex 3.14142 20 3
      vertex 22.6 15.45 3
    endloop
  endfacet
  facet normal 0 0 1
    outer loop
      vertex 32.8 25.45 3
      vertex 3 35.35 3
      vertex 22.6 25.45 3
    endloop
  endfacet
  facet normal 0 0 1
    outer loop
      vertex 3 35.35 3
      vertex 3.14142 20 3
      vertex 22.6 25.45 3
    endloop
  endfacet
  facet normal 0 0 1
    outer loop
      vertex 3.14142 20 3
      vertex 3 35.35 3
      vertex 3 20 3
    endloop
  endfacet
  facet normal -0 0 1
    outer loop
      vertex 33.1877 -2 3
      vertex 70.7 -35.35 3
      vertex 33.1877 2 3
    endloop
  endfacet
  facet normal 0 0 1
    outer loop
      vertex 3.14142 -20 3
      vertex 33.1877 -2 3
      vertex 3.14142 -10 3
    endloop
  endfacet
  facet normal 0 0 1
    outer loop
      vertex 3 -35.35 3
      vertex 33.1877 -2 3
      vertex 3.14142 -20 3
    endloop
  endfacet
  facet normal 0 0 1
    outer loop
      vertex 3 -35.35 3
      vertex 3.14142 -20 3
      vertex 3 -20 3
    endloop
  endfacet
  facet normal 0 0 1
    outer loop
      vertex 33.1877 -2 3
      vertex 3 -35.35 3
      vertex 70.7 -35.35 3
    endloop
  endfacet
  facet normal 0 0 1
    outer loop
      vertex 70.7 35.35 3
      vertex 32.8 15.45 3
      vertex 33.1877 2 3
    endloop
  endfacet
  facet normal -0 0 1
    outer loop
      vertex 22.6 15.45 3
      vertex 33.1877 2 3
      vertex 32.8 15.45 3
    endloop
  endfacet
  facet normal 0 0 1
    outer loop
      vertex 3.14142 10 3
      vertex 22.6 15.45 3
      vertex 3.14142 20 3
    endloop
  endfacet
  facet normal 0 0 1
    outer loop
      vertex 3 2 3
      vertex 22.6 15.45 3
      vertex 3.14142 10 3
    endloop
  endfacet
  facet normal 0 0 1
    outer loop
      vertex 3 2 3
      vertex 3.14142 10 3
      vertex 3 10 3
    endloop
  endfacet
  facet normal 0 0 1
    outer loop
      vertex 22.6 15.45 3
      vertex 3 2 3
      vertex 33.1877 2 3
    endloop
  endfacet
  facet normal -1 0 0
    outer loop
      vertex 27.7 15.45 5
      vertex 27.7 25.45 17.4
      vertex 27.7 25.45 5
    endloop
  endfacet
  facet normal -1 -0 0
    outer loop
      vertex 27.7 25.45 17.4
      vertex 27.7 15.45 5
      vertex 27.7 15.45 17.4
    endloop
  endfacet
  facet normal 0 -1 0
    outer loop
      vertex 22.6 15.45 5
      vertex 22.6 15.45 3
      vertex 27.7 15.45 5
    endloop
  endfacet
  facet normal 0 -1 0
    outer loop
      vertex 27.7 15.45 5
      vertex 32.8 15.45 17.4
      vertex 27.7 15.45 17.4
    endloop
  endfacet
  facet normal 0 -1 0
    outer loop
      vertex 27.7 15.45 5
      vertex 32.8 15.45 3
      vertex 32.8 15.45 17.4
    endloop
  endfacet
  facet normal 0 -1 0
    outer loop
      vertex 32.8 15.45 3
      vertex 27.7 15.45 5
      vertex 22.6 15.45 3
    endloop
  endfacet
  facet normal 1 -0 0
    outer loop
      vertex 32.8 15.45 17.4
      vertex 32.8 25.45 3
      vertex 32.8 25.45 17.4
    endloop
  endfacet
  facet normal 1 0 0
    outer loop
      vertex 32.8 25.45 3
      vertex 32.8 15.45 17.4
      vertex 32.8 15.45 3
    endloop
  endfacet
  facet normal -0 0 1
    outer loop
      vertex 27.7 25.45 17.4
      vertex 32.8 15.45 17.4
      vertex 32.8 25.45 17.4
    endloop
  endfacet
  facet normal 0 0 1
    outer loop
      vertex 32.8 15.45 17.4
      vertex 27.7 25.45 17.4
      vertex 27.7 15.45 17.4
    endloop
  endfacet
  facet normal 0 1 0
    outer loop
      vertex 32.8 25.45 17.4
      vertex 27.7 25.45 5
      vertex 27.7 25.45 17.4
    endloop
  endfacet
  facet normal 0 1 -0
    outer loop
      vertex 32.8 25.45 3
      vertex 27.7 25.45 5
      vertex 32.8 25.45 17.4
    endloop
  endfacet
  facet normal 0 1 0
    outer loop
      vertex 22.6 25.45 3
      vertex 27.7 25.45 5
      vertex 32.8 25.45 3
    endloop
  endfacet
  facet normal 0 1 0
    outer loop
      vertex 27.7 25.45 5
      vertex 22.6 25.45 3
      vertex 22.6 25.45 5
    endloop
  endfacet
  facet normal -1 0 0
    outer loop
      vertex 22.6 15.45 3
      vertex 22.6 25.45 5
      vertex 22.6 25.45 3
    endloop
  endfacet
  facet normal -1 -0 0
    outer loop
      vertex 22.6 25.45 5
      vertex 22.6 15.45 3
      vertex 22.6 15.45 5
    endloop
  endfacet
  facet normal -0 0 1
    outer loop
      vertex 22.6 25.45 5
      vertex 27.7 15.45 5
      vertex 27.7 25.45 5
    endloop
  endfacet
  facet normal 0 0 1
    outer loop
      vertex 27.7 15.45 5
      vertex 22.6 25.45 5
      vertex 22.6 15.45 5
    endloop
  endfacet
endsolid OpenSCAD_Model
