solid OpenSCAD_Model
  facet normal -0.999507 0 0.0313906
    outer loop
      vertex 1.17696 90.7 0
      vertex 1.18189 100.7 0.156976
      vertex 1.17696 100.7 0
    endloop
  endfacet
  facet normal -0.999507 0 0.0313906
    outer loop
      vertex 1.18189 100.7 0.156976
      vertex 1.17696 90.7 0
      vertex 1.18189 90.7 0.156976
    endloop
  endfacet
  facet normal -0.750122 0 0.661299
    outer loop
      vertex 1.75067 90.7 1.59356
      vertex 1.85453 100.7 1.71137
      vertex 1.75067 100.7 1.59356
    endloop
  endfacet
  facet normal -0.750122 0 0.661299
    outer loop
      vertex 1.85453 100.7 1.71137
      vertex 1.75067 90.7 1.59356
      vertex 1.85453 90.7 1.71137
    endloop
  endfacet
  facet normal -0.960305 0 0.278952
    outer loop
      vertex 1.2555 90.7 0.621724
      vertex 1.29931 100.7 0.772542
      vertex 1.2555 100.7 0.621724
    endloop
  endfacet
  facet normal -0.960305 0 0.278952
    outer loop
      vertex 1.29931 100.7 0.772542
      vertex 1.2555 90.7 0.621724
      vertex 1.29931 90.7 0.772542
    endloop
  endfacet
  facet normal -0.707043 0 0.70717
    outer loop
      vertex 1.85453 90.7 1.71137
      vertex 1.91006 100.7 1.76689
      vertex 1.85453 100.7 1.71137
    endloop
  endfacet
  facet normal -0.707043 0 0.70717
    outer loop
      vertex 1.91006 100.7 1.76689
      vertex 1.85453 90.7 1.71137
      vertex 1.91006 90.7 1.76689
    endloop
  endfacet
  facet normal -0.860745 0 0.509036
    outer loop
      vertex 1.48619 90.7 1.20438
      vertex 1.56614 100.7 1.33957
      vertex 1.48619 100.7 1.20438
    endloop
  endfacet
  facet normal -0.860745 0 0.509036
    outer loop
      vertex 1.56614 100.7 1.33957
      vertex 1.48619 90.7 1.20438
      vertex 1.56614 90.7 1.33957
    endloop
  endfacet
  facet normal -0.987687 0 0.156444
    outer loop
      vertex 1.19667 90.7 0.313333
      vertex 1.22124 100.7 0.468452
      vertex 1.19667 100.7 0.313333
    endloop
  endfacet
  facet normal -0.987687 0 0.156444
    outer loop
      vertex 1.22124 100.7 0.468452
      vertex 1.19667 90.7 0.313333
      vertex 1.22124 90.7 0.468452
    endloop
  endfacet
  facet normal -0.917742 0 0.397177
    outer loop
      vertex 1.35251 90.7 0.920311
      vertex 1.41489 100.7 1.06445
      vertex 1.35251 100.7 0.920311
    endloop
  endfacet
  facet normal -0.917742 0 0.397177
    outer loop
      vertex 1.41489 100.7 1.06445
      vertex 1.35251 90.7 0.920311
      vertex 1.41489 90.7 1.06445
    endloop
  endfacet
  facet normal -0.940881 0 0.338737
    outer loop
      vertex 1.29931 90.7 0.772542
      vertex 1.35251 100.7 0.920311
      vertex 1.29931 100.7 0.772542
    endloop
  endfacet
  facet normal -0.940881 0 0.338737
    outer loop
      vertex 1.35251 100.7 0.920311
      vertex 1.29931 90.7 0.772542
      vertex 1.35251 90.7 0.920311
    endloop
  endfacet
  facet normal -0.975917 0 0.218141
    outer loop
      vertex 1.22124 90.7 0.468452
      vertex 1.2555 100.7 0.621724
      vertex 1.22124 100.7 0.468452
    endloop
  endfacet
  facet normal -0.975917 0 0.218141
    outer loop
      vertex 1.2555 100.7 0.621724
      vertex 1.22124 90.7 0.468452
      vertex 1.2555 90.7 0.621724
    endloop
  endfacet
  facet normal -0.995562 0 0.0941078
    outer loop
      vertex 1.18189 90.7 0.156976
      vertex 1.19667 100.7 0.313333
      vertex 1.18189 100.7 0.156976
    endloop
  endfacet
  facet normal -0.995562 0 0.0941078
    outer loop
      vertex 1.19667 100.7 0.313333
      vertex 1.18189 90.7 0.156976
      vertex 1.19667 90.7 0.313333
    endloop
  endfacet
  facet normal -0.790161 0 0.6129
    outer loop
      vertex 1.65441 90.7 1.46946
      vertex 1.75067 100.7 1.59356
      vertex 1.65441 100.7 1.46946
    endloop
  endfacet
  facet normal -0.790161 0 0.6129
    outer loop
      vertex 1.75067 100.7 1.59356
      vertex 1.65441 90.7 1.46946
      vertex 1.75067 90.7 1.59356
    endloop
  endfacet
  facet normal -0.891001 0 0.454001
    outer loop
      vertex 1.41489 90.7 1.06445
      vertex 1.48619 100.7 1.20438
      vertex 1.41489 100.7 1.06445
    endloop
  endfacet
  facet normal -0.891001 0 0.454001
    outer loop
      vertex 1.48619 100.7 1.20438
      vertex 1.41489 90.7 1.06445
      vertex 1.48619 90.7 1.20438
    endloop
  endfacet
  facet normal -0.82709 0 0.56207
    outer loop
      vertex 1.56614 90.7 1.33957
      vertex 1.65441 100.7 1.46946
      vertex 1.56614 100.7 1.33957
    endloop
  endfacet
  facet normal -0.82709 0 0.56207
    outer loop
      vertex 1.65441 100.7 1.46946
      vertex 1.56614 90.7 1.33957
      vertex 1.65441 90.7 1.46946
    endloop
  endfacet
  facet normal -0.711136 0 -0.703055
    outer loop
      vertex 1.91006 90.7 1.76689
      vertex 1.90919 100.7 1.76777
      vertex 1.91006 100.7 1.76689
    endloop
  endfacet
  facet normal -0.711136 -0 -0.703055
    outer loop
      vertex 1.90919 100.7 1.76777
      vertex 1.91006 90.7 1.76689
      vertex 1.90919 90.7 1.76777
    endloop
  endfacet
  facet normal -0.707107 0 0.707107
    outer loop
      vertex 1.90919 90.7 1.76777
      vertex 3.14142 100.7 3
      vertex 1.90919 100.7 1.76777
    endloop
  endfacet
  facet normal -0.707107 0 0.707107
    outer loop
      vertex 3.14142 100.7 3
      vertex 1.90919 90.7 1.76777
      vertex 3.14142 90.7 3
    endloop
  endfacet
  facet normal 0 -1 -0
    outer loop
      vertex 3 100.7 3
      vertex 1.90919 100.7 1.76777
      vertex 3.14142 100.7 3
    endloop
  endfacet
  facet normal 0 -1 -0
    outer loop
      vertex 1.90919 100.7 1.76777
      vertex 1.85453 100.7 1.71137
      vertex 1.91006 100.7 1.76689
    endloop
  endfacet
  facet normal 0 -1 0
    outer loop
      vertex 3 100.7 3
      vertex 1.85453 100.7 1.71137
      vertex 1.90919 100.7 1.76777
    endloop
  endfacet
  facet normal 0 -1 0
    outer loop
      vertex 0 100.7 0
      vertex 1.85453 100.7 1.71137
      vertex 3 100.7 3
    endloop
  endfacet
  facet normal 0 -1 0
    outer loop
      vertex 0 100.7 0
      vertex 1.75067 100.7 1.59356
      vertex 1.85453 100.7 1.71137
    endloop
  endfacet
  facet normal 0 -1 0
    outer loop
      vertex 0 100.7 0
      vertex 1.65441 100.7 1.46946
      vertex 1.75067 100.7 1.59356
    endloop
  endfacet
  facet normal 0 -1 0
    outer loop
      vertex 0 100.7 0
      vertex 1.56614 100.7 1.33957
      vertex 1.65441 100.7 1.46946
    endloop
  endfacet
  facet normal 0 -1 0
    outer loop
      vertex 0 100.7 0
      vertex 1.48619 100.7 1.20438
      vertex 1.56614 100.7 1.33957
    endloop
  endfacet
  facet normal 0 -1 0
    outer loop
      vertex 0 100.7 0
      vertex 1.41489 100.7 1.06445
      vertex 1.48619 100.7 1.20438
    endloop
  endfacet
  facet normal 0 -1 0
    outer loop
      vertex 0 100.7 0
      vertex 1.35251 100.7 0.920311
      vertex 1.41489 100.7 1.06445
    endloop
  endfacet
  facet normal 0 -1 0
    outer loop
      vertex 0 100.7 0
      vertex 1.29931 100.7 0.772542
      vertex 1.35251 100.7 0.920311
    endloop
  endfacet
  facet normal 0 -1 0
    outer loop
      vertex 0 100.7 0
      vertex 1.2555 100.7 0.621724
      vertex 1.29931 100.7 0.772542
    endloop
  endfacet
  facet normal 0 -1 0
    outer loop
      vertex 0 100.7 0
      vertex 1.22124 100.7 0.468452
      vertex 1.2555 100.7 0.621724
    endloop
  endfacet
  facet normal 0 -1 0
    outer loop
      vertex 0 100.7 0
      vertex 1.19667 100.7 0.313333
      vertex 1.22124 100.7 0.468452
    endloop
  endfacet
  facet normal 0 -1 0
    outer loop
      vertex 0 100.7 0
      vertex 1.18189 100.7 0.156976
      vertex 1.19667 100.7 0.313333
    endloop
  endfacet
  facet normal 0 -1 0
    outer loop
      vertex 1.18189 100.7 0.156976
      vertex 0 100.7 0
      vertex 1.17696 100.7 0
    endloop
  endfacet
  facet normal 0 1 0
    outer loop
      vertex 1.90919 90.7 1.76777
      vertex 3 90.7 3
      vertex 3.14142 90.7 3
    endloop
  endfacet
  facet normal 0 1 0
    outer loop
      vertex 1.85453 90.7 1.71137
      vertex 1.90919 90.7 1.76777
      vertex 1.91006 90.7 1.76689
    endloop
  endfacet
  facet normal 0 1 0
    outer loop
      vertex 1.85453 90.7 1.71137
      vertex 3 90.7 3
      vertex 1.90919 90.7 1.76777
    endloop
  endfacet
  facet normal 0 1 -0
    outer loop
      vertex 1.85453 90.7 1.71137
      vertex 0 90.7 0
      vertex 3 90.7 3
    endloop
  endfacet
  facet normal 0 1 -0
    outer loop
      vertex 1.75067 90.7 1.59356
      vertex 0 90.7 0
      vertex 1.85453 90.7 1.71137
    endloop
  endfacet
  facet normal 0 1 -0
    outer loop
      vertex 1.65441 90.7 1.46946
      vertex 0 90.7 0
      vertex 1.75067 90.7 1.59356
    endloop
  endfacet
  facet normal 0 1 -0
    outer loop
      vertex 1.56614 90.7 1.33957
      vertex 0 90.7 0
      vertex 1.65441 90.7 1.46946
    endloop
  endfacet
  facet normal 0 1 -0
    outer loop
      vertex 1.48619 90.7 1.20438
      vertex 0 90.7 0
      vertex 1.56614 90.7 1.33957
    endloop
  endfacet
  facet normal 0 1 -0
    outer loop
      vertex 1.41489 90.7 1.06445
      vertex 0 90.7 0
      vertex 1.48619 90.7 1.20438
    endloop
  endfacet
  facet normal 0 1 -0
    outer loop
      vertex 1.35251 90.7 0.920311
      vertex 0 90.7 0
      vertex 1.41489 90.7 1.06445
    endloop
  endfacet
  facet normal 0 1 -0
    outer loop
      vertex 1.29931 90.7 0.772542
      vertex 0 90.7 0
      vertex 1.35251 90.7 0.920311
    endloop
  endfacet
  facet normal 0 1 -0
    outer loop
      vertex 1.2555 90.7 0.621724
      vertex 0 90.7 0
      vertex 1.29931 90.7 0.772542
    endloop
  endfacet
  facet normal 0 1 -0
    outer loop
      vertex 1.22124 90.7 0.468452
      vertex 0 90.7 0
      vertex 1.2555 90.7 0.621724
    endloop
  endfacet
  facet normal 0 1 -0
    outer loop
      vertex 1.19667 90.7 0.313333
      vertex 0 90.7 0
      vertex 1.22124 90.7 0.468452
    endloop
  endfacet
  facet normal 0 1 -0
    outer loop
      vertex 1.18189 90.7 0.156976
      vertex 0 90.7 0
      vertex 1.19667 90.7 0.313333
    endloop
  endfacet
  facet normal 0 1 0
    outer loop
      vertex 0 90.7 0
      vertex 1.18189 90.7 0.156976
      vertex 1.17696 90.7 0
    endloop
  endfacet
  facet normal -0.999507 0 0.0313906
    outer loop
      vertex 1.17696 60.7 0
      vertex 1.18189 70.7 0.156976
      vertex 1.17696 70.7 0
    endloop
  endfacet
  facet normal -0.999507 0 0.0313906
    outer loop
      vertex 1.18189 70.7 0.156976
      vertex 1.17696 60.7 0
      vertex 1.18189 60.7 0.156976
    endloop
  endfacet
  facet normal -0.750122 0 0.661299
    outer loop
      vertex 1.75067 60.7 1.59356
      vertex 1.85453 70.7 1.71137
      vertex 1.75067 70.7 1.59356
    endloop
  endfacet
  facet normal -0.750122 0 0.661299
    outer loop
      vertex 1.85453 70.7 1.71137
      vertex 1.75067 60.7 1.59356
      vertex 1.85453 60.7 1.71137
    endloop
  endfacet
  facet normal -0.960305 0 0.278952
    outer loop
      vertex 1.2555 60.7 0.621724
      vertex 1.29931 70.7 0.772542
      vertex 1.2555 70.7 0.621724
    endloop
  endfacet
  facet normal -0.960305 0 0.278952
    outer loop
      vertex 1.29931 70.7 0.772542
      vertex 1.2555 60.7 0.621724
      vertex 1.29931 60.7 0.772542
    endloop
  endfacet
  facet normal -0.707043 0 0.70717
    outer loop
      vertex 1.85453 60.7 1.71137
      vertex 1.91006 70.7 1.76689
      vertex 1.85453 70.7 1.71137
    endloop
  endfacet
  facet normal -0.707043 0 0.70717
    outer loop
      vertex 1.91006 70.7 1.76689
      vertex 1.85453 60.7 1.71137
      vertex 1.91006 60.7 1.76689
    endloop
  endfacet
  facet normal -0.860745 0 0.509036
    outer loop
      vertex 1.48619 60.7 1.20438
      vertex 1.56614 70.7 1.33957
      vertex 1.48619 70.7 1.20438
    endloop
  endfacet
  facet normal -0.860745 0 0.509036
    outer loop
      vertex 1.56614 70.7 1.33957
      vertex 1.48619 60.7 1.20438
      vertex 1.56614 60.7 1.33957
    endloop
  endfacet
  facet normal -0.987687 0 0.156444
    outer loop
      vertex 1.19667 60.7 0.313333
      vertex 1.22124 70.7 0.468452
      vertex 1.19667 70.7 0.313333
    endloop
  endfacet
  facet normal -0.987687 0 0.156444
    outer loop
      vertex 1.22124 70.7 0.468452
      vertex 1.19667 60.7 0.313333
      vertex 1.22124 60.7 0.468452
    endloop
  endfacet
  facet normal -0.917742 0 0.397177
    outer loop
      vertex 1.35251 60.7 0.920311
      vertex 1.41489 70.7 1.06445
      vertex 1.35251 70.7 0.920311
    endloop
  endfacet
  facet normal -0.917742 0 0.397177
    outer loop
      vertex 1.41489 70.7 1.06445
      vertex 1.35251 60.7 0.920311
      vertex 1.41489 60.7 1.06445
    endloop
  endfacet
  facet normal -0.940881 0 0.338737
    outer loop
      vertex 1.29931 60.7 0.772542
      vertex 1.35251 70.7 0.920311
      vertex 1.29931 70.7 0.772542
    endloop
  endfacet
  facet normal -0.940881 0 0.338737
    outer loop
      vertex 1.35251 70.7 0.920311
      vertex 1.29931 60.7 0.772542
      vertex 1.35251 60.7 0.920311
    endloop
  endfacet
  facet normal -0.975917 0 0.218141
    outer loop
      vertex 1.22124 60.7 0.468452
      vertex 1.2555 70.7 0.621724
      vertex 1.22124 70.7 0.468452
    endloop
  endfacet
  facet normal -0.975917 0 0.218141
    outer loop
      vertex 1.2555 70.7 0.621724
      vertex 1.22124 60.7 0.468452
      vertex 1.2555 60.7 0.621724
    endloop
  endfacet
  facet normal -0.995562 0 0.0941078
    outer loop
      vertex 1.18189 60.7 0.156976
      vertex 1.19667 70.7 0.313333
      vertex 1.18189 70.7 0.156976
    endloop
  endfacet
  facet normal -0.995562 0 0.0941078
    outer loop
      vertex 1.19667 70.7 0.313333
      vertex 1.18189 60.7 0.156976
      vertex 1.19667 60.7 0.313333
    endloop
  endfacet
  facet normal -0.790161 0 0.6129
    outer loop
      vertex 1.65441 60.7 1.46946
      vertex 1.75067 70.7 1.59356
      vertex 1.65441 70.7 1.46946
    endloop
  endfacet
  facet normal -0.790161 0 0.6129
    outer loop
      vertex 1.75067 70.7 1.59356
      vertex 1.65441 60.7 1.46946
      vertex 1.75067 60.7 1.59356
    endloop
  endfacet
  facet normal -0.891001 0 0.454001
    outer loop
      vertex 1.41489 60.7 1.06445
      vertex 1.48619 70.7 1.20438
      vertex 1.41489 70.7 1.06445
    endloop
  endfacet
  facet normal -0.891001 0 0.454001
    outer loop
      vertex 1.48619 70.7 1.20438
      vertex 1.41489 60.7 1.06445
      vertex 1.48619 60.7 1.20438
    endloop
  endfacet
  facet normal -0.82709 0 0.56207
    outer loop
      vertex 1.56614 60.7 1.33957
      vertex 1.65441 70.7 1.46946
      vertex 1.56614 70.7 1.33957
    endloop
  endfacet
  facet normal -0.82709 0 0.56207
    outer loop
      vertex 1.65441 70.7 1.46946
      vertex 1.56614 60.7 1.33957
      vertex 1.65441 60.7 1.46946
    endloop
  endfacet
  facet normal -0.711136 0 -0.703055
    outer loop
      vertex 1.91006 60.7 1.76689
      vertex 1.90919 70.7 1.76777
      vertex 1.91006 70.7 1.76689
    endloop
  endfacet
  facet normal -0.711136 -0 -0.703055
    outer loop
      vertex 1.90919 70.7 1.76777
      vertex 1.91006 60.7 1.76689
      vertex 1.90919 60.7 1.76777
    endloop
  endfacet
  facet normal -0.707107 0 0.707107
    outer loop
      vertex 1.90919 60.7 1.76777
      vertex 3.14142 70.7 3
      vertex 1.90919 70.7 1.76777
    endloop
  endfacet
  facet normal -0.707107 0 0.707107
    outer loop
      vertex 3.14142 70.7 3
      vertex 1.90919 60.7 1.76777
      vertex 3.14142 60.7 3
    endloop
  endfacet
  facet normal 0 -1 -0
    outer loop
      vertex 3 70.7 3
      vertex 1.90919 70.7 1.76777
      vertex 3.14142 70.7 3
    endloop
  endfacet
  facet normal 0 -1 -0
    outer loop
      vertex 1.90919 70.7 1.76777
      vertex 1.85453 70.7 1.71137
      vertex 1.91006 70.7 1.76689
    endloop
  endfacet
  facet normal 0 -1 0
    outer loop
      vertex 3 70.7 3
      vertex 1.85453 70.7 1.71137
      vertex 1.90919 70.7 1.76777
    endloop
  endfacet
  facet normal 0 -1 0
    outer loop
      vertex 0 70.7 0
      vertex 1.85453 70.7 1.71137
      vertex 3 70.7 3
    endloop
  endfacet
  facet normal 0 -1 0
    outer loop
      vertex 0 70.7 0
      vertex 1.75067 70.7 1.59356
      vertex 1.85453 70.7 1.71137
    endloop
  endfacet
  facet normal 0 -1 0
    outer loop
      vertex 0 70.7 0
      vertex 1.65441 70.7 1.46946
      vertex 1.75067 70.7 1.59356
    endloop
  endfacet
  facet normal 0 -1 0
    outer loop
      vertex 0 70.7 0
      vertex 1.56614 70.7 1.33957
      vertex 1.65441 70.7 1.46946
    endloop
  endfacet
  facet normal 0 -1 0
    outer loop
      vertex 0 70.7 0
      vertex 1.48619 70.7 1.20438
      vertex 1.56614 70.7 1.33957
    endloop
  endfacet
  facet normal 0 -1 0
    outer loop
      vertex 0 70.7 0
      vertex 1.41489 70.7 1.06445
      vertex 1.48619 70.7 1.20438
    endloop
  endfacet
  facet normal 0 -1 0
    outer loop
      vertex 0 70.7 0
      vertex 1.35251 70.7 0.920311
      vertex 1.41489 70.7 1.06445
    endloop
  endfacet
  facet normal 0 -1 0
    outer loop
      vertex 0 70.7 0
      vertex 1.29931 70.7 0.772542
      vertex 1.35251 70.7 0.920311
    endloop
  endfacet
  facet normal 0 -1 0
    outer loop
      vertex 0 70.7 0
      vertex 1.2555 70.7 0.621724
      vertex 1.29931 70.7 0.772542
    endloop
  endfacet
  facet normal 0 -1 0
    outer loop
      vertex 0 70.7 0
      vertex 1.22124 70.7 0.468452
      vertex 1.2555 70.7 0.621724
    endloop
  endfacet
  facet normal 0 -1 0
    outer loop
      vertex 0 70.7 0
      vertex 1.19667 70.7 0.313333
      vertex 1.22124 70.7 0.468452
    endloop
  endfacet
  facet normal 0 -1 0
    outer loop
      vertex 0 70.7 0
      vertex 1.18189 70.7 0.156976
      vertex 1.19667 70.7 0.313333
    endloop
  endfacet
  facet normal 0 -1 0
    outer loop
      vertex 1.18189 70.7 0.156976
      vertex 0 70.7 0
      vertex 1.17696 70.7 0
    endloop
  endfacet
  facet normal 0 1 0
    outer loop
      vertex 1.90919 60.7 1.76777
      vertex 3 60.7 3
      vertex 3.14142 60.7 3
    endloop
  endfacet
  facet normal 0 1 0
    outer loop
      vertex 1.85453 60.7 1.71137
      vertex 1.90919 60.7 1.76777
      vertex 1.91006 60.7 1.76689
    endloop
  endfacet
  facet normal 0 1 0
    outer loop
      vertex 1.85453 60.7 1.71137
      vertex 3 60.7 3
      vertex 1.90919 60.7 1.76777
    endloop
  endfacet
  facet normal 0 1 -0
    outer loop
      vertex 1.85453 60.7 1.71137
      vertex 0 60.7 0
      vertex 3 60.7 3
    endloop
  endfacet
  facet normal 0 1 -0
    outer loop
      vertex 1.75067 60.7 1.59356
      vertex 0 60.7 0
      vertex 1.85453 60.7 1.71137
    endloop
  endfacet
  facet normal 0 1 -0
    outer loop
      vertex 1.65441 60.7 1.46946
      vertex 0 60.7 0
      vertex 1.75067 60.7 1.59356
    endloop
  endfacet
  facet normal 0 1 -0
    outer loop
      vertex 1.56614 60.7 1.33957
      vertex 0 60.7 0
      vertex 1.65441 60.7 1.46946
    endloop
  endfacet
  facet normal 0 1 -0
    outer loop
      vertex 1.48619 60.7 1.20438
      vertex 0 60.7 0
      vertex 1.56614 60.7 1.33957
    endloop
  endfacet
  facet normal 0 1 -0
    outer loop
      vertex 1.41489 60.7 1.06445
      vertex 0 60.7 0
      vertex 1.48619 60.7 1.20438
    endloop
  endfacet
  facet normal 0 1 -0
    outer loop
      vertex 1.35251 60.7 0.920311
      vertex 0 60.7 0
      vertex 1.41489 60.7 1.06445
    endloop
  endfacet
  facet normal 0 1 -0
    outer loop
      vertex 1.29931 60.7 0.772542
      vertex 0 60.7 0
      vertex 1.35251 60.7 0.920311
    endloop
  endfacet
  facet normal 0 1 -0
    outer loop
      vertex 1.2555 60.7 0.621724
      vertex 0 60.7 0
      vertex 1.29931 60.7 0.772542
    endloop
  endfacet
  facet normal 0 1 -0
    outer loop
      vertex 1.22124 60.7 0.468452
      vertex 0 60.7 0
      vertex 1.2555 60.7 0.621724
    endloop
  endfacet
  facet normal 0 1 -0
    outer loop
      vertex 1.19667 60.7 0.313333
      vertex 0 60.7 0
      vertex 1.22124 60.7 0.468452
    endloop
  endfacet
  facet normal 0 1 -0
    outer loop
      vertex 1.18189 60.7 0.156976
      vertex 0 60.7 0
      vertex 1.19667 60.7 0.313333
    endloop
  endfacet
  facet normal 0 1 0
    outer loop
      vertex 0 60.7 0
      vertex 1.18189 60.7 0.156976
      vertex 1.17696 60.7 0
    endloop
  endfacet
  facet normal -0.891021 0 0.453962
    outer loop
      vertex 31.82 78.7 0
      vertex 32.4654 82.7 1.26677
      vertex 31.82 82.7 0
    endloop
  endfacet
  facet normal -0.891021 0 0.453962
    outer loop
      vertex 32.4654 82.7 1.26677
      vertex 31.82 78.7 0
      vertex 32.4654 78.7 1.26677
    endloop
  endfacet
  facet normal 0 1 -0
    outer loop
      vertex 33.0504 78.7 2.6186
      vertex 3 78.7 3
      vertex 33.1877 78.7 3
    endloop
  endfacet
  facet normal 0 1 -0
    outer loop
      vertex 32.4654 78.7 1.26677
      vertex 3 78.7 3
      vertex 33.0504 78.7 2.6186
    endloop
  endfacet
  facet normal 0 1 -0
    outer loop
      vertex 31.82 78.7 0
      vertex 3 78.7 3
      vertex 32.4654 78.7 1.26677
    endloop
  endfacet
  facet normal 0 1 0
    outer loop
      vertex 3 78.7 3
      vertex 31.82 78.7 0
      vertex 0 78.7 0
    endloop
  endfacet
  facet normal 0 -1 0
    outer loop
      vertex 3 82.7 3
      vertex 33.0504 82.7 2.6186
      vertex 33.1877 82.7 3
    endloop
  endfacet
  facet normal 0 -1 0
    outer loop
      vertex 3 82.7 3
      vertex 32.4654 82.7 1.26677
      vertex 33.0504 82.7 2.6186
    endloop
  endfacet
  facet normal 0 -1 0
    outer loop
      vertex 31.82 82.7 0
      vertex 3 82.7 3
      vertex 0 82.7 0
    endloop
  endfacet
  facet normal 0 -1 0
    outer loop
      vertex 3 82.7 3
      vertex 31.82 82.7 0
      vertex 32.4654 82.7 1.26677
    endloop
  endfacet
  facet normal -0.917752 0 0.397154
    outer loop
      vertex 32.4654 78.7 1.26677
      vertex 33.0504 82.7 2.6186
      vertex 32.4654 82.7 1.26677
    endloop
  endfacet
  facet normal -0.917752 0 0.397154
    outer loop
      vertex 33.0504 82.7 2.6186
      vertex 32.4654 78.7 1.26677
      vertex 33.0504 78.7 2.6186
    endloop
  endfacet
  facet normal -0.940891 0 0.338711
    outer loop
      vertex 33.0504 78.7 2.6186
      vertex 33.1877 82.7 3
      vertex 33.0504 82.7 2.6186
    endloop
  endfacet
  facet normal -0.940891 0 0.338711
    outer loop
      vertex 33.1877 82.7 3
      vertex 33.0504 78.7 2.6186
      vertex 33.1877 78.7 3
    endloop
  endfacet
  facet normal -0.707107 0 0.707107
    outer loop
      vertex 0 45.35 0
      vertex 3 60.7 3
      vertex 0 60.7 0
    endloop
  endfacet
  facet normal -0.707107 0 0.707107
    outer loop
      vertex 3 60.7 3
      vertex 0 45.35 0
      vertex 3 45.35 3
    endloop
  endfacet
  facet normal -0.707107 0 0.707107
    outer loop
      vertex 0 100.7 0
      vertex 3 116.05 3
      vertex 0 116.05 0
    endloop
  endfacet
  facet normal -0.707107 0 0.707107
    outer loop
      vertex 3 116.05 3
      vertex 0 100.7 0
      vertex 3 100.7 3
    endloop
  endfacet
  facet normal -0.707107 0 0.707107
    outer loop
      vertex 0 70.7 0
      vertex 3 78.7 3
      vertex 0 78.7 0
    endloop
  endfacet
  facet normal -0.707107 0 0.707107
    outer loop
      vertex 3 78.7 3
      vertex 0 70.7 0
      vertex 3 70.7 3
    endloop
  endfacet
  facet normal -0.707107 0 0.707107
    outer loop
      vertex 0 82.7 0
      vertex 3 90.7 3
      vertex 0 90.7 0
    endloop
  endfacet
  facet normal -0.707107 0 0.707107
    outer loop
      vertex 3 90.7 3
      vertex 0 82.7 0
      vertex 3 82.7 3
    endloop
  endfacet
  facet normal 0 1 -0
    outer loop
      vertex 70.7 116.05 0
      vertex 3 116.05 3
      vertex 70.7 116.05 3
    endloop
  endfacet
  facet normal 0 1 0
    outer loop
      vertex 3 116.05 3
      vertex 70.7 116.05 0
      vertex 0 116.05 0
    endloop
  endfacet
  facet normal 1 -0 0
    outer loop
      vertex 70.7 45.35 3
      vertex 70.7 116.05 0
      vertex 70.7 116.05 3
    endloop
  endfacet
  facet normal 1 0 0
    outer loop
      vertex 70.7 116.05 0
      vertex 70.7 45.35 3
      vertex 70.7 45.35 0
    endloop
  endfacet
  facet normal -0 0 1
    outer loop
      vertex 3 78.7 3
      vertex 17.5 67.8 3
      vertex 33.1877 78.7 3
    endloop
  endfacet
  facet normal 0 0 1
    outer loop
      vertex 5 67.8 3
      vertex 3.14142 70.7 3
      vertex 5 65.3 3
    endloop
  endfacet
  facet normal -0 -0 1
    outer loop
      vertex 3.14142 70.7 3
      vertex 17.5 67.8 3
      vertex 3 78.7 3
    endloop
  endfacet
  facet normal 0 0 1
    outer loop
      vertex 17.5 67.8 3
      vertex 3.14142 70.7 3
      vertex 5 67.8 3
    endloop
  endfacet
  facet normal 0 0 1
    outer loop
      vertex 3.14142 70.7 3
      vertex 3 78.7 3
      vertex 3 70.7 3
    endloop
  endfacet
  facet normal 0 0 1
    outer loop
      vertex 70.7 116.05 3
      vertex 33.1877 82.7 3
      vertex 70.7 45.35 3
    endloop
  endfacet
  facet normal -0 0 1
    outer loop
      vertex 3 116.05 3
      vertex 33.1877 82.7 3
      vertex 70.7 116.05 3
    endloop
  endfacet
  facet normal 0 0 1
    outer loop
      vertex 33.1877 82.7 3
      vertex 3 116.05 3
      vertex 3.14142 100.7 3
    endloop
  endfacet
  facet normal 0 0 1
    outer loop
      vertex 3.14142 100.7 3
      vertex 3 116.05 3
      vertex 3 100.7 3
    endloop
  endfacet
  facet normal -0 0 1
    outer loop
      vertex 33.1877 78.7 3
      vertex 70.7 45.35 3
      vertex 33.1877 82.7 3
    endloop
  endfacet
  facet normal 0 0 1
    outer loop
      vertex 17.5 65.3 3
      vertex 33.1877 78.7 3
      vertex 17.5 67.8 3
    endloop
  endfacet
  facet normal 0 0 1
    outer loop
      vertex 33.1877 78.7 3
      vertex 17.5 65.3 3
      vertex 70.7 45.35 3
    endloop
  endfacet
  facet normal 0 0 1
    outer loop
      vertex 3.14142 60.7 3
      vertex 17.5 65.3 3
      vertex 5 65.3 3
    endloop
  endfacet
  facet normal 0 0 1
    outer loop
      vertex 3.14142 60.7 3
      vertex 5 65.3 3
      vertex 3.14142 70.7 3
    endloop
  endfacet
  facet normal 0 0 1
    outer loop
      vertex 17.5 65.3 3
      vertex 3.14142 60.7 3
      vertex 3 45.35 3
    endloop
  endfacet
  facet normal 0 0 1
    outer loop
      vertex 3 45.35 3
      vertex 3.14142 60.7 3
      vertex 3 60.7 3
    endloop
  endfacet
  facet normal 0 0 1
    outer loop
      vertex 17.5 65.3 3
      vertex 3 45.35 3
      vertex 70.7 45.35 3
    endloop
  endfacet
  facet normal -0 0 1
    outer loop
      vertex 3.14142 90.7 3
      vertex 33.1877 82.7 3
      vertex 3.14142 100.7 3
    endloop
  endfacet
  facet normal 0 0 1
    outer loop
      vertex 3 82.7 3
      vertex 3.14142 90.7 3
      vertex 3 90.7 3
    endloop
  endfacet
  facet normal 0 0 1
    outer loop
      vertex 3.14142 90.7 3
      vertex 3 82.7 3
      vertex 33.1877 82.7 3
    endloop
  endfacet
  facet normal 0 -1 0
    outer loop
      vertex 70.7 45.35 0
      vertex 3 45.35 3
      vertex 0 45.35 0
    endloop
  endfacet
  facet normal 0 -1 0
    outer loop
      vertex 3 45.35 3
      vertex 70.7 45.35 0
      vertex 70.7 45.35 3
    endloop
  endfacet
  facet normal 0 0 -1
    outer loop
      vertex 0 82.7 0
      vertex 1.17696 90.7 0
      vertex 31.82 82.7 0
    endloop
  endfacet
  facet normal -0 0 -1
    outer loop
      vertex 1.17696 90.7 0
      vertex 0 82.7 0
      vertex 0 90.7 0
    endloop
  endfacet
  facet normal 0 0 -1
    outer loop
      vertex 70.7 45.35 0
      vertex 31.82 78.7 0
      vertex 70.7 116.05 0
    endloop
  endfacet
  facet normal 0 0 -1
    outer loop
      vertex 70.7 45.35 0
      vertex 17.5 65.3 0
      vertex 31.82 78.7 0
    endloop
  endfacet
  facet normal 0 0 -1
    outer loop
      vertex 0 45.35 0
      vertex 17.5 65.3 0
      vertex 70.7 45.35 0
    endloop
  endfacet
  facet normal 0 0 -1
    outer loop
      vertex 1.17696 70.7 0
      vertex 5 65.3 0
      vertex 1.17696 60.7 0
    endloop
  endfacet
  facet normal 0 -0 -1
    outer loop
      vertex 1.17696 60.7 0
      vertex 17.5 65.3 0
      vertex 0 45.35 0
    endloop
  endfacet
  facet normal -0 0 -1
    outer loop
      vertex 17.5 65.3 0
      vertex 1.17696 60.7 0
      vertex 5 65.3 0
    endloop
  endfacet
  facet normal -0 0 -1
    outer loop
      vertex 1.17696 60.7 0
      vertex 0 45.35 0
      vertex 0 60.7 0
    endloop
  endfacet
  facet normal 0 0 -1
    outer loop
      vertex 31.82 82.7 0
      vertex 70.7 116.05 0
      vertex 31.82 78.7 0
    endloop
  endfacet
  facet normal 0 0 -1
    outer loop
      vertex 1.17696 100.7 0
      vertex 31.82 82.7 0
      vertex 1.17696 90.7 0
    endloop
  endfacet
  facet normal 0 0 -1
    outer loop
      vertex 0 116.05 0
      vertex 31.82 82.7 0
      vertex 1.17696 100.7 0
    endloop
  endfacet
  facet normal 0 0 -1
    outer loop
      vertex 0 116.05 0
      vertex 1.17696 100.7 0
      vertex 0 100.7 0
    endloop
  endfacet
  facet normal 0 0 -1
    outer loop
      vertex 31.82 82.7 0
      vertex 0 116.05 0
      vertex 70.7 116.05 0
    endloop
  endfacet
  facet normal 0 0 -1
    outer loop
      vertex 17.5 67.8 0
      vertex 31.82 78.7 0
      vertex 17.5 65.3 0
    endloop
  endfacet
  facet normal 0 0 -1
    outer loop
      vertex 0 78.7 0
      vertex 17.5 67.8 0
      vertex 5 67.8 0
    endloop
  endfacet
  facet normal 0 0 -1
    outer loop
      vertex 5 65.3 0
      vertex 1.17696 70.7 0
      vertex 5 67.8 0
    endloop
  endfacet
  facet normal 0 0 -1
    outer loop
      vertex 0 78.7 0
      vertex 5 67.8 0
      vertex 1.17696 70.7 0
    endloop
  endfacet
  facet normal 0 0 -1
    outer loop
      vertex 0 78.7 0
      vertex 1.17696 70.7 0
      vertex 0 70.7 0
    endloop
  endfacet
  facet normal 0 0 -1
    outer loop
      vertex 17.5 67.8 0
      vertex 0 78.7 0
      vertex 31.82 78.7 0
    endloop
  endfacet
  facet normal 1 -0 0
    outer loop
      vertex 5 65.3 3
      vertex 5 67.8 0
      vertex 5 67.8 3
    endloop
  endfacet
  facet normal 1 0 0
    outer loop
      vertex 5 67.8 0
      vertex 5 65.3 3
      vertex 5 65.3 0
    endloop
  endfacet
  facet normal 0 -1 0
    outer loop
      vertex 5 67.8 0
      vertex 17.5 67.8 3
      vertex 5 67.8 3
    endloop
  endfacet
  facet normal 0 -1 -0
    outer loop
      vertex 17.5 67.8 3
      vertex 5 67.8 0
      vertex 17.5 67.8 0
    endloop
  endfacet
  facet normal -1 0 0
    outer loop
      vertex 17.5 65.3 0
      vertex 17.5 67.8 3
      vertex 17.5 67.8 0
    endloop
  endfacet
  facet normal -1 -0 0
    outer loop
      vertex 17.5 67.8 3
      vertex 17.5 65.3 0
      vertex 17.5 65.3 3
    endloop
  endfacet
  facet normal 0 1 -0
    outer loop
      vertex 17.5 65.3 0
      vertex 5 65.3 3
      vertex 17.5 65.3 3
    endloop
  endfacet
  facet normal 0 1 0
    outer loop
      vertex 5 65.3 3
      vertex 17.5 65.3 0
      vertex 5 65.3 0
    endloop
  endfacet
endsolid OpenSCAD_Model
